<svg width="2019" height="386" viewBox="0 0 2019 386" fill="none" xmlns="http://www.w3.org/2000/svg">
<path d="M65.0374 353.727C65.0374 371.48 50.6455 385.872 32.892 385.872C15.1386 385.872 0.746605 371.48 0.746603 353.727L0.746582 109.421C0.74658 91.668 15.1386 77.276 32.892 77.276C50.6454 77.276 65.0374 91.668 65.0374 109.421L65.0374 353.727Z" fill="#22B554"/>
<path d="M251.481 32.2729C251.481 14.5194 265.873 0.127447 283.626 0.127444C301.38 0.127441 315.772 14.5194 315.772 32.2728L315.772 276.578C315.772 294.332 301.38 308.724 283.626 308.724C265.873 308.724 251.481 294.332 251.481 276.578L251.481 32.2729Z" fill="#22B554"/>
<path d="M148.616 199.429C148.616 217.183 134.224 231.575 116.47 231.575C98.7167 231.575 84.3247 217.183 84.3247 199.429L84.3247 109.422C84.3247 91.6684 98.7167 77.2764 116.47 77.2764C134.224 77.2764 148.616 91.6684 148.616 109.422L148.616 199.429Z" fill="#F62F2F"/>
<path d="M167.903 186.571C167.903 168.818 182.295 154.426 200.048 154.426C217.802 154.426 232.194 168.818 232.194 186.571L232.194 276.578C232.194 294.332 217.802 308.724 200.048 308.724C182.295 308.724 167.903 294.332 167.903 276.578L167.903 186.571Z" fill="#F62F2F"/>
<path d="M423.045 129.252V101.015H556.127V129.252H506.366V266.5H472.806V129.252H423.045ZM579.97 147.768V166.746H580.664C584.367 159.803 588.456 154.711 592.931 151.471C597.405 148.076 603.037 146.379 609.826 146.379C613.067 146.379 615.535 146.688 617.233 147.305V174.847H616.538C605.892 173.767 597.328 176.081 590.848 181.79C584.367 187.499 581.127 196.449 581.127 208.638V266.5H549.65V147.768H579.97ZM697.53 266.5C695.987 264.494 694.753 260.097 693.827 253.308H693.364C689.97 258.399 685.649 262.334 680.403 265.111C675.157 267.889 667.828 269.277 658.416 269.277C645.918 269.277 635.888 266.114 628.328 259.788C620.767 253.462 616.987 244.513 616.987 232.94C616.987 220.905 621.153 212.11 629.485 206.555C637.817 200.846 649.544 196.912 664.665 194.751C675.774 193.208 683.335 191.665 687.347 190.122C691.359 188.425 693.364 185.494 693.364 181.327C693.364 177.007 691.667 173.613 688.273 171.144C684.878 168.521 679.94 167.209 673.46 167.209C659.11 167.209 651.472 172.764 650.547 183.873H622.542C623.004 172.61 627.556 163.275 636.197 155.868C644.838 148.462 657.336 144.759 673.691 144.759C707.02 144.759 723.684 159.34 723.684 188.502V248.91C723.684 257.859 725.073 263.337 727.85 265.343V266.5H697.53ZM666.054 247.29C674.694 247.29 681.483 245.053 686.421 240.578C691.513 236.103 694.059 230.78 694.059 224.608V206.787C690.664 208.793 683.335 211.107 672.071 213.73C663.122 215.736 656.796 218.05 653.093 220.673C649.389 223.142 647.538 227 647.538 232.246C647.538 242.275 653.71 247.29 666.054 247.29ZM783.504 269.972C768.537 269.972 756.425 264.34 747.167 253.076C737.909 241.658 733.28 226.383 733.28 207.25C733.28 188.734 737.986 173.69 747.398 162.117C756.965 150.391 769.154 144.527 783.967 144.527C798.78 144.527 809.966 150.391 817.527 162.117H818.221V101.015H849.698V266.5H819.378V250.993H818.915C811.201 263.646 799.397 269.972 783.504 269.972ZM790.447 243.587C799.705 243.587 806.726 240.424 811.509 234.097C816.447 227.771 818.915 219.053 818.915 207.944C818.915 182.639 809.735 169.987 791.373 169.987C782.887 169.987 776.406 173.381 771.932 180.17C767.457 186.959 765.22 195.986 765.22 207.25C765.22 218.822 767.38 227.771 771.7 234.097C776.175 240.424 782.424 243.587 790.447 243.587ZM865.53 266.5V147.768H897.007V266.5H865.53ZM865.53 129.252V101.015H897.007V129.252H865.53ZM943.443 147.768V163.969H944.137C952.315 151.008 964.042 144.527 979.317 144.527C991.507 144.527 1001.38 148.693 1008.94 157.026C1016.5 165.203 1020.28 175.85 1020.28 188.965V266.5H988.807V193.594C988.807 187.114 986.955 181.868 983.252 177.856C979.703 173.844 974.688 171.838 968.208 171.838C961.264 171.838 955.478 174.384 950.849 179.476C946.375 184.568 944.137 191.125 944.137 199.149V266.5H912.661V147.768H943.443ZM1087.36 307.003C1071.32 307.003 1058.43 303.763 1048.71 297.282C1039.15 290.802 1033.51 281.698 1031.82 269.972H1063.06C1066.15 278.767 1074.09 283.164 1086.9 283.164C1104.49 283.164 1113.29 274.909 1113.29 258.399V245.438H1112.59C1104.41 254.696 1094.08 259.325 1081.58 259.325C1067.54 259.325 1055.27 254.156 1044.78 243.818C1034.44 233.48 1029.27 219.748 1029.27 202.621C1029.27 185.031 1034.05 170.99 1043.62 160.497C1053.19 149.851 1065.53 144.527 1080.65 144.527C1095 144.527 1105.96 149.774 1113.52 160.266H1113.98V147.768H1144.3V257.474C1144.3 272.903 1139.59 284.939 1130.18 293.579C1120.61 302.529 1106.34 307.003 1087.36 307.003ZM1086.9 234.097C1096.31 234.097 1103.33 231.089 1107.96 225.071C1112.59 219.053 1114.91 211.338 1114.91 201.926C1114.91 192.668 1112.44 185.031 1107.5 179.013C1102.72 172.841 1095.77 169.755 1086.67 169.755C1078.65 169.755 1072.16 172.687 1067.23 178.55C1062.44 184.413 1060.05 192.283 1060.05 202.158C1060.05 212.187 1062.44 220.056 1067.23 225.765C1072.16 231.32 1078.72 234.097 1086.9 234.097ZM1260.84 270.203C1238.47 270.203 1221.11 265.497 1208.77 256.085C1196.42 246.518 1189.94 232.94 1189.32 215.35H1222.19C1223.27 225.225 1226.74 232.323 1232.61 236.643C1238.62 240.964 1247.57 243.124 1259.45 243.124C1268.87 243.124 1276.58 241.427 1282.6 238.032C1288.62 234.483 1291.62 229.083 1291.62 221.831C1291.62 219.208 1291.24 216.893 1290.47 214.887C1289.85 212.727 1288.46 210.876 1286.3 209.333C1284.14 207.635 1282.29 206.324 1280.75 205.398C1279.2 204.318 1276.35 203.238 1272.18 202.158C1268.02 200.923 1264.85 200.075 1262.69 199.612C1260.53 198.995 1256.52 197.992 1250.66 196.603C1243.56 194.906 1237.7 193.44 1233.07 192.206C1228.59 190.971 1223.58 189.042 1218.02 186.419C1212.62 183.796 1208.3 180.942 1205.06 177.856C1201.98 174.616 1199.35 170.449 1197.19 165.358C1195.03 160.112 1193.95 154.171 1193.95 147.536C1193.95 131.644 1199.74 119.454 1211.31 110.968C1223.04 102.327 1238.39 98.0065 1257.37 98.0065C1276.19 98.0065 1291.24 102.481 1302.5 111.43C1313.77 120.38 1320.02 133.109 1321.25 149.619H1289.08C1288.15 141.596 1284.76 135.424 1278.89 131.103C1273.19 126.783 1265.93 124.623 1257.14 124.623C1248.04 124.623 1240.78 126.397 1235.38 129.946C1229.98 133.495 1227.28 138.201 1227.28 144.064C1227.28 150.391 1229.91 155.02 1235.15 157.951C1240.55 160.883 1249.96 163.815 1263.39 166.746C1271.41 168.444 1277.97 170.064 1283.06 171.607C1288.15 172.995 1293.63 175.078 1299.49 177.856C1305.51 180.479 1310.14 183.411 1313.38 186.651C1316.78 189.891 1319.55 194.211 1321.71 199.612C1324.03 204.858 1325.18 210.953 1325.18 217.896C1325.18 234.252 1319.24 247.058 1307.36 256.316C1295.48 265.574 1279.97 270.203 1260.84 270.203ZM1329.98 168.598V147.768H1346.41V110.736H1377.19V147.768H1397.56V168.598H1377.19V231.552C1377.19 239.421 1381.13 243.355 1389 243.355L1398.26 243.124V266.269C1393.47 266.577 1386.92 266.731 1378.58 266.731C1369.48 266.731 1361.84 264.571 1355.67 260.251C1349.5 255.776 1346.41 248.447 1346.41 238.263V168.598H1329.98ZM1439.46 147.768V166.746H1440.16C1443.86 159.803 1447.95 154.711 1452.42 151.471C1456.9 148.076 1462.53 146.379 1469.32 146.379C1472.56 146.379 1475.03 146.688 1476.72 147.305V174.847H1476.03C1465.38 173.767 1456.82 176.081 1450.34 181.79C1443.86 187.499 1440.62 196.449 1440.62 208.638V266.5H1409.14V147.768H1439.46ZM1557.02 266.5C1555.48 264.494 1554.24 260.097 1553.32 253.308H1552.86C1549.46 258.399 1545.14 262.334 1539.89 265.111C1534.65 267.889 1527.32 269.277 1517.91 269.277C1505.41 269.277 1495.38 266.114 1487.82 259.788C1480.26 253.462 1476.48 244.513 1476.48 232.94C1476.48 220.905 1480.64 212.11 1488.98 206.555C1497.31 200.846 1509.04 196.912 1524.16 194.751C1535.27 193.208 1542.83 191.665 1546.84 190.122C1550.85 188.425 1552.86 185.494 1552.86 181.327C1552.86 177.007 1551.16 173.613 1547.76 171.144C1544.37 168.521 1539.43 167.209 1532.95 167.209C1518.6 167.209 1510.96 172.764 1510.04 183.873H1482.03C1482.5 172.61 1487.05 163.275 1495.69 155.868C1504.33 148.462 1516.83 144.759 1533.18 144.759C1566.51 144.759 1583.18 159.34 1583.18 188.502V248.91C1583.18 257.859 1584.56 263.337 1587.34 265.343V266.5H1557.02ZM1525.55 247.29C1534.19 247.29 1540.97 245.053 1545.91 240.578C1551 236.103 1553.55 230.78 1553.55 224.608V206.787C1550.16 208.793 1542.83 211.107 1531.56 213.73C1522.61 215.736 1516.29 218.05 1512.58 220.673C1508.88 223.142 1507.03 227 1507.03 232.246C1507.03 242.275 1513.2 247.29 1525.55 247.29ZM1589.35 168.598V147.768H1605.79V110.736H1636.57V147.768H1656.94V168.598H1636.57V231.552C1636.57 239.421 1640.5 243.355 1648.37 243.355L1657.63 243.124V266.269C1652.85 266.577 1646.29 266.731 1637.96 266.731C1628.85 266.731 1621.22 264.571 1615.04 260.251C1608.87 255.776 1605.79 248.447 1605.79 238.263V168.598H1589.35ZM1723.16 269.972C1704.03 269.972 1688.99 264.108 1678.03 252.382C1667.08 240.501 1661.6 225.38 1661.6 207.018C1661.6 189.274 1667.08 174.461 1678.03 162.58C1688.99 150.545 1703.03 144.527 1720.16 144.527C1738.83 144.527 1753.25 151.008 1763.44 163.969C1773.62 176.93 1778.71 194.289 1778.71 216.045H1692.61C1693.85 225.457 1697.01 232.786 1702.1 238.032C1707.19 243.124 1714.14 245.67 1722.93 245.67C1734.51 245.67 1742.14 240.809 1745.85 231.089H1776.86C1774.55 242.198 1768.68 251.456 1759.27 258.862C1749.86 266.269 1737.82 269.972 1723.16 269.972ZM1720.62 168.829C1705.34 168.829 1696.16 177.316 1693.08 194.289H1745.85C1745.38 186.728 1742.84 180.633 1738.21 176.004C1733.58 171.221 1727.72 168.829 1720.62 168.829ZM1840.96 307.003C1824.91 307.003 1812.03 303.763 1802.31 297.282C1792.74 290.802 1787.11 281.698 1785.41 269.972H1816.66C1819.74 278.767 1827.69 283.164 1840.5 283.164C1858.09 283.164 1866.88 274.909 1866.88 258.399V245.438H1866.19C1858.01 254.696 1847.67 259.325 1835.17 259.325C1821.13 259.325 1808.86 254.156 1798.37 243.818C1788.03 233.48 1782.87 219.748 1782.87 202.621C1782.87 185.031 1787.65 170.99 1797.22 160.497C1806.78 149.851 1819.13 144.527 1834.25 144.527C1848.6 144.527 1859.55 149.774 1867.11 160.266H1867.58V147.768H1897.89V257.474C1897.89 272.903 1893.19 284.939 1883.78 293.579C1874.21 302.529 1859.94 307.003 1840.96 307.003ZM1840.5 234.097C1849.91 234.097 1856.93 231.089 1861.56 225.071C1866.19 219.053 1868.5 211.338 1868.5 201.926C1868.5 192.668 1866.03 185.031 1861.09 179.013C1856.31 172.841 1849.37 169.755 1840.26 169.755C1832.24 169.755 1825.76 172.687 1820.82 178.55C1816.04 184.413 1813.65 192.283 1813.65 202.158C1813.65 212.187 1816.04 220.056 1820.82 225.765C1825.76 231.32 1832.32 234.097 1840.5 234.097ZM1916.08 305.383V280.618H1927.19C1938.92 280.618 1944.78 275.218 1944.78 264.417C1944.78 259.171 1941.77 248.447 1935.75 232.246L1903.81 147.768H1936.91L1954.5 201.232L1962.14 227.154H1962.6C1964.76 217.125 1967.08 208.484 1969.54 201.232L1986.21 147.768H2017.92L1976.49 269.509C1971.86 283.087 1966.61 292.422 1960.75 297.514C1955.04 302.76 1946.32 305.383 1934.6 305.383H1916.08Z" fill="#0B0B14"/>
</svg>
