<svg viewBox="0 0 314 60" fill="none" xmlns="http://www.w3.org/2000/svg">
  <path class="bullish" fill="#22B554" d="M10 54.9999C10 57.7614 7.76143 59.9999 5 59.9999C2.23858 59.9999 3.56348e-06 57.7614 3.32207e-06 54.9999L0 16.9999C-2.41411e-07 14.2385 2.23857 11.9999 5 11.9999C7.76142 11.9999 10 14.2385 10 16.9999L10 54.9999Z"/>
  <path class="bullish" fill="#22B554" d="M39 5C39 2.23858 41.2386 4.82822e-07 44 0C46.7614 -4.82822e-07 49 2.23857 49 4.99999L49 43C49 45.7614 46.7614 48 44 48C41.2386 48 39 45.7614 39 43L39 5Z"/>
  <path class="bearish" fill="#F62F2F" d="M23 31C23 33.7614 20.7614 36 18 36C15.2386 36 13 33.7614 13 31L13 17C13 14.2386 15.2386 12 18 12C20.7614 12 23 14.2386 23 17L23 31Z"/>
  <path class="bearish" fill="#F62F2F" d="M26 29C26 26.2386 28.2386 24 31 24C33.7614 24 36 26.2386 36 29L36 43C36 45.7614 33.7614 48 31 48C28.2386 48 26 45.7614 26 43L26 29Z"/>
  <path class="logotype" fill="#0B0B14" d="M65.7511 19.652V15.26H86.4511V19.652H78.7111V41H73.4911V19.652H65.7511ZM90.1597 22.532V25.484H90.2677C90.8437 24.404 91.4797 23.612 92.1757 23.108C92.8717 22.58 93.7477 22.316 94.8037 22.316C95.3077 22.316 95.6917 22.364 95.9557 22.46V26.744H95.8477C94.1917 26.576 92.8597 26.936 91.8517 27.824C90.8437 28.712 90.3397 30.104 90.3397 32V41H85.4437V22.532H90.1597ZM108.445 41C108.205 40.688 108.013 40.004 107.869 38.948H107.797C107.269 39.74 106.597 40.352 105.781 40.784C104.965 41.216 103.825 41.432 102.361 41.432C100.417 41.432 98.8574 40.94 97.6814 39.956C96.5054 38.972 95.9174 37.58 95.9174 35.78C95.9174 33.908 96.5654 32.54 97.8614 31.676C99.1574 30.788 100.981 30.176 103.333 29.84C105.061 29.6 106.237 29.36 106.861 29.12C107.485 28.856 107.797 28.4 107.797 27.752C107.797 27.08 107.533 26.552 107.005 26.168C106.477 25.76 105.709 25.556 104.701 25.556C102.469 25.556 101.281 26.42 101.137 28.148H96.7814C96.8534 26.396 97.5614 24.944 98.9054 23.792C100.249 22.64 102.193 22.064 104.737 22.064C109.921 22.064 112.513 24.332 112.513 28.868V38.264C112.513 39.656 112.729 40.508 113.161 40.82V41H108.445ZM103.549 38.012C104.893 38.012 105.949 37.664 106.717 36.968C107.509 36.272 107.905 35.444 107.905 34.484V31.712C107.377 32.024 106.237 32.384 104.485 32.792C103.093 33.104 102.109 33.464 101.533 33.872C100.957 34.256 100.669 34.856 100.669 35.672C100.669 37.232 101.629 38.012 103.549 38.012ZM121.818 41.54C119.49 41.54 117.606 40.664 116.166 38.912C114.726 37.136 114.006 34.76 114.006 31.784C114.006 28.904 114.738 26.564 116.202 24.764C117.69 22.94 119.586 22.028 121.89 22.028C124.194 22.028 125.934 22.94 127.11 24.764H127.218V15.26H132.114V41H127.398V38.588H127.326C126.126 40.556 124.29 41.54 121.818 41.54ZM122.898 37.436C124.338 37.436 125.43 36.944 126.174 35.96C126.942 34.976 127.326 33.62 127.326 31.892C127.326 27.956 125.898 25.988 123.042 25.988C121.722 25.988 120.714 26.516 120.018 27.572C119.322 28.628 118.974 30.032 118.974 31.784C118.974 33.584 119.31 34.976 119.982 35.96C120.678 36.944 121.65 37.436 122.898 37.436ZM134.577 41V22.532H139.473V41H134.577ZM134.577 19.652V15.26H139.473V19.652H134.577ZM146.695 22.532V25.052H146.803C148.075 23.036 149.899 22.028 152.275 22.028C154.171 22.028 155.707 22.676 156.883 23.972C158.059 25.244 158.647 26.9 158.647 28.94V41H153.751V29.66C153.751 28.652 153.463 27.836 152.887 27.212C152.335 26.588 151.555 26.276 150.547 26.276C149.467 26.276 148.567 26.672 147.847 27.464C147.151 28.256 146.803 29.276 146.803 30.524V41H141.907V22.532H146.695ZM169.081 47.3C166.585 47.3 164.581 46.796 163.069 45.788C161.581 44.78 160.705 43.364 160.441 41.54H165.301C165.781 42.908 167.017 43.592 169.009 43.592C171.745 43.592 173.113 42.308 173.113 39.74V37.724H173.005C171.733 39.164 170.125 39.884 168.181 39.884C165.997 39.884 164.089 39.08 162.457 37.472C160.849 35.864 160.045 33.728 160.045 31.064C160.045 28.328 160.789 26.144 162.277 24.512C163.765 22.856 165.685 22.028 168.037 22.028C170.269 22.028 171.973 22.844 173.149 24.476H173.221V22.532H177.937V39.596C177.937 41.996 177.205 43.868 175.741 45.212C174.253 46.604 172.033 47.3 169.081 47.3ZM169.009 35.96C170.473 35.96 171.565 35.492 172.285 34.556C173.005 33.62 173.365 32.42 173.365 30.956C173.365 29.516 172.981 28.328 172.213 27.392C171.469 26.432 170.389 25.952 168.973 25.952C167.725 25.952 166.717 26.408 165.949 27.32C165.205 28.232 164.833 29.456 164.833 30.992C164.833 32.552 165.205 33.776 165.949 34.664C166.717 35.528 167.737 35.96 169.009 35.96ZM196.065 41.576C192.585 41.576 189.885 40.844 187.965 39.38C186.045 37.892 185.037 35.78 184.941 33.044H190.053C190.221 34.58 190.761 35.684 191.673 36.356C192.609 37.028 194.001 37.364 195.849 37.364C197.313 37.364 198.513 37.1 199.449 36.572C200.385 36.02 200.853 35.18 200.853 34.052C200.853 33.644 200.793 33.284 200.673 32.972C200.577 32.636 200.361 32.348 200.025 32.108C199.689 31.844 199.401 31.64 199.161 31.496C198.921 31.328 198.477 31.16 197.829 30.992C197.181 30.8 196.689 30.668 196.353 30.596C196.017 30.5 195.393 30.344 194.481 30.128C193.377 29.864 192.465 29.636 191.745 29.444C191.049 29.252 190.269 28.952 189.405 28.544C188.565 28.136 187.893 27.692 187.389 27.212C186.909 26.708 186.501 26.06 186.165 25.268C185.829 24.452 185.661 23.528 185.661 22.496C185.661 20.024 186.561 18.128 188.361 16.808C190.185 15.464 192.573 14.792 195.525 14.792C198.453 14.792 200.793 15.488 202.545 16.88C204.297 18.272 205.269 20.252 205.461 22.82H200.457C200.313 21.572 199.785 20.612 198.873 19.94C197.985 19.268 196.857 18.932 195.489 18.932C194.073 18.932 192.945 19.208 192.105 19.76C191.265 20.312 190.845 21.044 190.845 21.956C190.845 22.94 191.253 23.66 192.069 24.116C192.909 24.572 194.373 25.028 196.461 25.484C197.709 25.748 198.729 26 199.521 26.24C200.313 26.456 201.165 26.78 202.077 27.212C203.013 27.62 203.733 28.076 204.237 28.58C204.765 29.084 205.197 29.756 205.533 30.596C205.893 31.412 206.073 32.36 206.073 33.44C206.073 35.984 205.149 37.976 203.301 39.416C201.453 40.856 199.041 41.576 196.065 41.576ZM206.819 25.772V22.532H209.375V16.772H214.163V22.532H217.331V25.772H214.163V35.564C214.163 36.788 214.775 37.4 215.999 37.4L217.439 37.364V40.964C216.695 41.012 215.675 41.036 214.379 41.036C212.963 41.036 211.775 40.7 210.815 40.028C209.855 39.332 209.375 38.192 209.375 36.608V25.772H206.819ZM223.848 22.532V25.484H223.956C224.532 24.404 225.168 23.612 225.864 23.108C226.56 22.58 227.436 22.316 228.492 22.316C228.996 22.316 229.38 22.364 229.644 22.46V26.744H229.536C227.88 26.576 226.548 26.936 225.54 27.824C224.532 28.712 224.028 30.104 224.028 32V41H219.132V22.532H223.848ZM242.133 41C241.893 40.688 241.701 40.004 241.557 38.948H241.485C240.957 39.74 240.285 40.352 239.469 40.784C238.653 41.216 237.513 41.432 236.049 41.432C234.105 41.432 232.545 40.94 231.369 39.956C230.193 38.972 229.605 37.58 229.605 35.78C229.605 33.908 230.253 32.54 231.549 31.676C232.845 30.788 234.669 30.176 237.021 29.84C238.749 29.6 239.925 29.36 240.549 29.12C241.173 28.856 241.485 28.4 241.485 27.752C241.485 27.08 241.221 26.552 240.693 26.168C240.165 25.76 239.397 25.556 238.389 25.556C236.157 25.556 234.969 26.42 234.825 28.148H230.469C230.541 26.396 231.249 24.944 232.593 23.792C233.937 22.64 235.881 22.064 238.425 22.064C243.609 22.064 246.201 24.332 246.201 28.868V38.264C246.201 39.656 246.417 40.508 246.849 40.82V41H242.133ZM237.237 38.012C238.581 38.012 239.637 37.664 240.405 36.968C241.197 36.272 241.593 35.444 241.593 34.484V31.712C241.065 32.024 239.925 32.384 238.173 32.792C236.781 33.104 235.797 33.464 235.221 33.872C234.645 34.256 234.357 34.856 234.357 35.672C234.357 37.232 235.317 38.012 237.237 38.012ZM247.162 25.772V22.532H249.718V16.772H254.506V22.532H257.674V25.772H254.506V35.564C254.506 36.788 255.118 37.4 256.342 37.4L257.782 37.364V40.964C257.038 41.012 256.018 41.036 254.722 41.036C253.306 41.036 252.118 40.7 251.158 40.028C250.198 39.332 249.718 38.192 249.718 36.608V25.772H247.162ZM267.976 41.54C265 41.54 262.66 40.628 260.956 38.804C259.252 36.956 258.4 34.604 258.4 31.748C258.4 28.988 259.252 26.684 260.956 24.836C262.66 22.964 264.844 22.028 267.508 22.028C270.412 22.028 272.656 23.036 274.24 25.052C275.824 27.068 276.616 29.768 276.616 33.152H263.224C263.416 34.616 263.908 35.756 264.7 36.572C265.492 37.364 266.572 37.76 267.94 37.76C269.74 37.76 270.928 37.004 271.504 35.492H276.328C275.968 37.22 275.056 38.66 273.592 39.812C272.128 40.964 270.256 41.54 267.976 41.54ZM267.58 25.808C265.204 25.808 263.776 27.128 263.296 29.768H271.504C271.432 28.592 271.036 27.644 270.316 26.924C269.596 26.18 268.684 25.808 267.58 25.808ZM286.298 47.3C283.802 47.3 281.798 46.796 280.286 45.788C278.798 44.78 277.922 43.364 277.658 41.54H282.518C282.998 42.908 284.234 43.592 286.226 43.592C288.962 43.592 290.33 42.308 290.33 39.74V37.724H290.222C288.95 39.164 287.342 39.884 285.398 39.884C283.214 39.884 281.306 39.08 279.674 37.472C278.066 35.864 277.262 33.728 277.262 31.064C277.262 28.328 278.006 26.144 279.494 24.512C280.982 22.856 282.902 22.028 285.254 22.028C287.486 22.028 289.19 22.844 290.366 24.476H290.438V22.532H295.154V39.596C295.154 41.996 294.422 43.868 292.958 45.212C291.47 46.604 289.25 47.3 286.298 47.3ZM286.226 35.96C287.69 35.96 288.782 35.492 289.502 34.556C290.222 33.62 290.582 32.42 290.582 30.956C290.582 29.516 290.198 28.328 289.43 27.392C288.686 26.432 287.606 25.952 286.19 25.952C284.942 25.952 283.934 26.408 283.166 27.32C282.422 28.232 282.05 29.456 282.05 30.992C282.05 32.552 282.422 33.776 283.166 34.664C283.934 35.528 284.954 35.96 286.226 35.96ZM297.982 47.048V43.196H299.71C301.534 43.196 302.446 42.356 302.446 40.676C302.446 39.86 301.978 38.192 301.042 35.672L296.074 22.532H301.222L303.958 30.848L305.146 34.88H305.218C305.554 33.32 305.914 31.976 306.298 30.848L308.89 22.532H313.822L307.378 41.468C306.658 43.58 305.842 45.032 304.93 45.824C304.042 46.64 302.686 47.048 300.862 47.048H297.982Z"/>
</svg>
