<?xml version="1.0" encoding="UTF-8" standalone="no"?>
<!-- Created with Inkscape (http://www.inkscape.org/) -->

<svg
   width="60.931168mm"
   height="50.704857mm"
   viewBox="0 0 60.931168 50.704857"
   version="1.1"
   id="svg249"
   inkscape:version="1.1 (c4e8f9e, 2021-05-24)"
   sodipodi:docname="tradingstrategy.svg"
   xmlns:inkscape="http://www.inkscape.org/namespaces/inkscape"
   xmlns:sodipodi="http://sodipodi.sourceforge.net/DTD/sodipodi-0.dtd"
   xmlns="http://www.w3.org/2000/svg"
   xmlns:svg="http://www.w3.org/2000/svg">
  <sodipodi:namedview
     id="namedview251"
     pagecolor="#ffffff"
     bordercolor="#666666"
     borderopacity="1.0"
     inkscape:pageshadow="2"
     inkscape:pageopacity="0.0"
     inkscape:pagecheckerboard="0"
     inkscape:document-units="mm"
     showgrid="false"
     inkscape:zoom="0.67081229"
     inkscape:cx="-298.89136"
     inkscape:cy="258.64165"
     inkscape:window-width="1616"
     inkscape:window-height="997"
     inkscape:window-x="0"
     inkscape:window-y="25"
     inkscape:window-maximized="1"
     inkscape:current-layer="layer1"
     fit-margin-top="0"
     fit-margin-left="0"
     fit-margin-right="0"
     fit-margin-bottom="0" />
  <defs
     id="defs246" />
  <g
     inkscape:label="Layer 1"
     inkscape:groupmode="layer"
     id="layer1"
     transform="translate(-66.186508,-80.121202)">
    <path
       style="fill:#00d400;stroke-width:0.125549"
       d="m 91.986197,122.94783 -0.0019,-7.87823 2.732642,-2.68206 c 1.502952,-1.47513 3.622473,-3.56487 4.710046,-4.64386 l 1.977405,-1.9618 v 12.52209 12.52209 h -4.708106 -4.708105 l -0.0019,-7.87823 z m 12.807983,-5.33648 v -13.21471 l 4.73949,-4.70748 4.73949,-4.707477 -4.67671,4.708724 -4.67672,4.708723 v 13.14916 13.14916 l 4.67672,0.0345 4.67671,0.0345 -4.73949,0.0298 -4.73949,0.0298 z m 12.86734,-7.43818 c 1e-5,-11.393616 0.0148,-16.036057 0.0329,-10.316537 0.0181,5.719517 0.0181,15.041567 -10e-6,20.715657 -0.0181,5.6741 -0.0328,0.99449 -0.0328,-10.39912 z m -51.475012,-4.70811 c 0,-13.914017 0.01467,-19.606116 0.0326,-12.649106 0.01793,6.95701 0.01793,18.341206 0,25.298216 -0.01793,6.95701 -0.0326,1.26491 -0.0326,-12.64911 z m 60.861002,0.0657 -0.0311,-25.232494 -1.03578,1.000447 -1.03578,1.000447 1.03103,-1.060461 c 0.56706,-0.583253 1.06155,-1.029932 1.09886,-0.992622 0.0373,0.03731 0.0534,11.418942 0.0358,25.292513 l -0.032,25.22467 z M 86.196847,100.3489 c -0.156167,-0.19913 -0.151726,-0.20357 0.0474,-0.0474 0.120841,0.0948 0.219711,0.19364 0.219711,0.21971 0,0.10334 -0.1031,0.0368 -0.267114,-0.17231 z m -2.621797,-2.636537 -2.321392,-2.354052 2.354053,2.321392 c 1.294729,1.276767 2.354052,2.336087 2.354052,2.354057 0,0.0894 -0.229903,-0.134242 -2.386713,-2.321397 z m -4.408973,-4.394231 c -0.156167,-0.199129 -0.151726,-0.20357 0.0474,-0.0474 0.120842,0.09477 0.219712,0.193641 0.219712,0.219711 0,0.103333 -0.1031,0.03682 -0.267114,-0.172309 z m 15.268891,-6.591347 -2.132957,-2.165728 2.166022,2.133249 2.166023,2.133249 3.734804,-3.702618 3.7348,-3.702617 -3.70291,3.735097 c -2.036601,2.054303 -3.732142,3.735096 -3.76787,3.735096 -0.03573,0 -1.024787,-0.974577 -2.197912,-2.165728 z m 28.563882,-2.527004 c 0,-0.02607 0.0989,-0.124941 0.21971,-0.219712 0.19913,-0.156167 0.20357,-0.151726 0.0474,0.0474 -0.16402,0.209134 -0.26712,0.275641 -0.26712,0.172309 z m 0.5022,-0.502198 c 0,-0.02607 0.0989,-0.124941 0.21971,-0.219712 0.19913,-0.156167 0.20357,-0.151726 0.0474,0.0474 -0.16401,0.209134 -0.26711,0.275641 -0.26711,0.172309 z m 0.5022,-0.502198 c 0,-0.02607 0.0989,-0.124941 0.21971,-0.219712 0.19913,-0.156167 0.20357,-0.151726 0.0474,0.0474 -0.16401,0.209134 -0.26711,0.275641 -0.26711,0.172309 z m 0.5022,-0.502198 c 0,-0.02607 0.0989,-0.12494 0.21971,-0.219711 0.19913,-0.156168 0.20357,-0.151727 0.0474,0.0474 -0.16401,0.209134 -0.26711,0.275641 -0.26711,0.172309 z M 92.270624,80.135512 c 2.399564,-0.01908 6.326124,-0.01908 8.725686,0 2.39957,0.01908 0.43629,0.03469 -4.362842,0.03469 -4.799128,0 -6.762408,-0.01561 -4.362844,-0.03469 z"
       id="path181" />
    <path
       style="fill:#d40000;stroke-width:0.125549"
       d="m 69.389234,130.73204 3.201511,-0.0357 1.475206,-1.47113 1.475207,-1.47114 V 108.66916 89.584295 l -4.676718,-4.708726 -4.676718,-4.708723 4.739493,4.707477 4.739492,4.707477 v 19.08603 19.08603 l -1.539794,1.5361 -1.539794,1.5361 -3.199698,-0.0291 -3.199699,-0.0291 z m 12.99437,-6.05791 c 3.383029,-3.38356 6.165303,-6.15192 6.18283,-6.15192 0.01753,0 0.03187,2.76836 0.03187,6.15192 v 6.15193 h -6.18283 -6.182832 z m -3.327061,-16.8234 V 93.225703 l 3.421223,3.405784 c 1.881672,1.873181 4.00032,3.965233 4.708105,4.649013 l 1.286882,1.24323 v 5.26916 5.26917 l -4.708105,4.70685 -4.708105,4.70685 z m 12.806045,-0.72009 v -2.8542 l 1.443861,1.43976 1.44386,1.43977 -1.410425,1.41444 c -0.775734,0.77794 -1.425471,1.41443 -1.443861,1.41443 -0.01839,0 -0.03344,-1.28439 -0.03344,-2.8542 z M 92.261081,84.495581 87.951469,80.22962 h 8.661369 8.661372 l -4.26542,4.237295 c -2.345987,2.330512 -4.304279,4.250194 -4.351763,4.265961 -0.04748,0.01577 -2.025659,-1.891015 -4.395946,-4.237295 z"
       id="path179" />
    <path
       style="fill:#00d400;stroke-width:0.125549"
       d="m 120.01705,130.73207 c 1.29473,-0.0204 3.41338,-0.0204 4.70811,0 1.29473,0.0204 0.2354,0.0371 -2.35406,0.0371 -2.58945,0 -3.64878,-0.0167 -2.35405,-0.0371 z m -15.09732,-13.18351 v -13.15194 l 4.64533,-4.644058 4.64533,-4.644057 v 17.796005 17.796 h -4.64533 -4.64533 z m 15.37981,-30.664818 c 1.44886,-1.450096 2.66254,-2.636539 2.69707,-2.636539 0.0345,0 -1.12266,1.186443 -2.57152,2.636539 -1.44887,1.450096 -2.66255,2.636539 -2.69707,2.636539 -0.0345,0 1.12266,-1.186443 2.57152,-2.636539 z"
       id="path177" />
    <path
       style="fill:#d40000;stroke-width:0.125549"
       d="M 66.250497,105.49709 V 80.293668 l 4.64533,4.644057 4.645331,4.644057 v 19.082268 19.08227 l -1.473244,1.4771 -1.473244,1.47709 h -3.172087 -3.172086 z"
       id="path175" />
    <path
       style="fill:#00d400;stroke-width:0.125549"
       d="M 117.72577,110.14114 V 89.581782 l 4.64533,-4.644057 4.64533,-4.644057 v 25.203422 25.20342 h -4.64533 -4.64533 z"
       id="path173" />
    <path
       style="fill:#9d9d9d;stroke-width:0.125549"
       d="m 115.46588,164.66905 c 0,-0.0995 0.0512,-0.21258 0.11384,-0.25127 0.0626,-0.0387 0.0843,0.0427 0.0481,0.18091 -0.0767,0.29316 -0.16198,0.33021 -0.16198,0.0704 z m 7.33555,-2.70672 c 0,-1.55368 0.018,-2.18927 0.04,-1.41244 0.022,0.77684 0.022,2.04803 0,2.82487 -0.022,0.77683 -0.04,0.14124 -0.04,-1.41243 z m -73.876759,2.33803 c 0,-0.0261 0.09887,-0.12494 0.219711,-0.21971 0.199129,-0.15617 0.20357,-0.15173 0.0474,0.0474 -0.164014,0.20914 -0.267114,0.27564 -0.267114,0.17231 z m 64.030219,0 c 0,-0.0261 0.0989,-0.12494 0.21972,-0.21971 0.19913,-0.15617 0.20357,-0.15173 0.0474,0.0474 -0.16402,0.20914 -0.26712,0.27564 -0.26712,0.17231 z m -63.13155,-0.83144 c 0,-0.17263 0.0285,-0.24325 0.06333,-0.15694 0.03483,0.0863 0.03483,0.22756 0,0.31388 -0.03483,0.0863 -0.06333,0.0157 -0.06333,-0.15694 z m 64.03022,0 c 0,-0.17263 0.0285,-0.24325 0.0633,-0.15694 0.0348,0.0863 0.0348,0.22756 0,0.31388 -0.0348,0.0863 -0.0633,0.0157 -0.0633,-0.15694 z m 2.87773,-0.32434 c 0.006,-0.14626 0.0358,-0.176 0.0759,-0.0759 0.0363,0.0906 0.0318,0.19892 -0.01,0.24064 -0.0417,0.0417 -0.0714,-0.0324 -0.0659,-0.16479 z m -71.770368,-2.75162 c 8.8e-5,-1.5882 0.01808,-2.22061 0.03998,-1.40535 0.0219,0.81526 0.02183,2.11469 -1.26e-4,2.88764 -0.02199,0.77294 -0.03991,0.10591 -0.03982,-1.48229 z m 11.798926,0.81607 c 0,-1.13936 0.01903,-1.60547 0.0423,-1.03578 0.02326,0.56968 0.02326,1.50188 0,2.07156 -0.02326,0.56968 -0.0423,0.10358 -0.0423,-1.03578 z m 3.766484,0 c 0,-1.13936 0.01903,-1.60547 0.0423,-1.03578 0.02326,0.56968 0.02326,1.50188 0,2.07156 -0.02326,0.56968 -0.0423,0.10358 -0.0423,-1.03578 z m 5.024703,-0.81607 c 8.8e-5,-1.5882 0.01808,-2.22061 0.03998,-1.40535 0.0219,0.81526 0.02183,2.11469 -1.25e-4,2.88764 -0.02199,0.77294 -0.03991,0.10591 -0.03982,-1.48229 z m 3.007734,1.31827 c 0,-0.86316 0.02006,-1.21626 0.04458,-0.78469 0.02452,0.43158 0.02452,1.13779 0,1.56937 -0.02452,0.43158 -0.04458,0.0785 -0.04458,-0.78468 z m 1.88597,-0.5022 c 0,-1.13936 0.01903,-1.60547 0.0423,-1.03578 0.02326,0.56968 0.02326,1.50188 0,2.07156 -0.02326,0.56968 -0.0423,0.10358 -0.0423,-1.03578 z m 3.009557,0.62775 c 0,-0.7941 0.02038,-1.11896 0.0453,-0.72191 0.02492,0.39705 0.02492,1.04676 0,1.44382 -0.02492,0.39705 -0.0453,0.0722 -0.0453,-0.72191 z m 2.133826,0.0628 c 2.51e-4,-0.75957 0.02096,-1.05412 0.04595,-0.65455 0.02499,0.39957 0.02476,1.02104 -5.02e-4,1.38104 -0.02527,0.36001 -0.04572,0.0331 -0.04544,-0.72649 z m 2.766234,-0.69052 c 0,-1.13936 0.01903,-1.60547 0.0423,-1.03578 0.02326,0.56968 0.02326,1.50188 0,2.07156 -0.02326,0.56968 -0.0423,0.10358 -0.0423,-1.03578 z m 16.823628,0 c 0,-1.13936 0.01903,-1.60547 0.0423,-1.03578 0.02326,0.56968 0.02326,1.50188 0,2.07156 -0.02326,0.56968 -0.0423,0.10358 -0.0423,-1.03578 z m 32.517306,0 c 0,-1.13936 0.019,-1.60547 0.0423,-1.03578 0.0233,0.56968 0.0233,1.50188 0,2.07156 -0.0233,0.56968 -0.0423,0.10358 -0.0423,-1.03578 z m 26.36812,-0.81607 c 8e-5,-1.5882 0.0181,-2.22061 0.04,-1.40535 0.0219,0.81526 0.0218,2.11469 0,2.88764 -0.022,0.77294 -0.0399,0.10591 -0.0398,-1.48229 z m -102.074706,2.41682 -0.23917,-0.28248 0.282486,0.23917 c 0.265467,0.22476 0.339641,0.3258 0.23917,0.3258 -0.02382,0 -0.150943,-0.12712 -0.282486,-0.28249 z m 30.708773,0.23509 c 0,-0.0261 0.09887,-0.12494 0.219712,-0.21971 0.199129,-0.15617 0.203569,-0.15173 0.0474,0.0474 -0.164014,0.20913 -0.267114,0.27564 -0.267114,0.17231 z m 4.880414,-0.17231 c -0.156167,-0.19913 -0.151726,-0.20357 0.0474,-0.0474 0.120841,0.0948 0.219711,0.19364 0.219711,0.21971 0,0.10333 -0.1031,0.0368 -0.267114,-0.17231 z m 18.899279,-0.0628 -0.23917,-0.28248 0.28248,0.23917 c 0.26547,0.22476 0.33965,0.3258 0.23917,0.3258 -0.0238,0 -0.15094,-0.12712 -0.28248,-0.28249 z m 2.33459,0.23509 c 0,-0.0261 0.0989,-0.12494 0.21971,-0.21971 0.19913,-0.15617 0.20357,-0.15173 0.0474,0.0474 -0.16402,0.20913 -0.26712,0.27564 -0.26712,0.17231 z m 22.2731,-0.23509 -0.23917,-0.28248 0.28249,0.23917 c 0.26547,0.22476 0.33964,0.3258 0.23917,0.3258 -0.0238,0 -0.15094,-0.12712 -0.28249,-0.28249 z m 8.03517,0 -0.23917,-0.28248 0.28249,0.23917 c 0.26546,0.22476 0.33964,0.3258 0.23917,0.3258 -0.0238,0 -0.15095,-0.12712 -0.28249,-0.28249 z m 7.23102,0.23509 c 0,-0.0261 0.0989,-0.12494 0.21971,-0.21971 0.19913,-0.15617 0.20357,-0.15173 0.0474,0.0474 -0.16402,0.20913 -0.26712,0.27564 -0.26712,0.17231 z m 2.43629,-0.23509 -0.23917,-0.28248 0.28248,0.23917 c 0.26547,0.22476 0.33964,0.3258 0.23918,0.3258 -0.0238,0 -0.15095,-0.12712 -0.28249,-0.28249 z m -99.674345,-0.21971 c 0.124983,-0.1381 0.255491,-0.2511 0.290017,-0.2511 0.03453,0 -0.03948,0.113 -0.164468,0.2511 -0.124983,0.13811 -0.25549,0.2511 -0.290016,0.2511 -0.03453,0 0.03948,-0.11299 0.164467,-0.2511 z m 3.252358,-0.0314 -0.239171,-0.28249 0.282486,0.23917 c 0.155368,0.13154 0.282487,0.25866 0.282487,0.28249 0,0.10047 -0.101041,0.0263 -0.325802,-0.23917 z m 30.157102,0.0123 c 0.130789,-0.18313 0.262907,-0.30868 0.293596,-0.279 0.03069,0.0297 -0.07632,0.17951 -0.237796,0.33296 l -0.293597,0.279 z m 5.432085,0.0505 c -0.156168,-0.19912 -0.151727,-0.20356 0.0474,-0.0474 0.120842,0.0948 0.219712,0.19364 0.219712,0.21971 0,0.10334 -0.1031,0.0368 -0.267114,-0.17231 z m 13.24567,-1.09855 c 2.5e-4,-0.75958 0.021,-1.05413 0.046,-0.65455 0.025,0.39957 0.0248,1.02104 -5e-4,1.38104 -0.0253,0.36 -0.0457,0.0331 -0.0454,-0.72649 z m 5.65361,1.03578 -0.23917,-0.28249 0.28248,0.23917 c 0.26547,0.22477 0.33964,0.32581 0.23917,0.32581 -0.0238,0 -0.15094,-0.12712 -0.28248,-0.28249 z m 6.2894,0.0314 c 0.12498,-0.1381 0.25549,-0.2511 0.29002,-0.2511 0.0345,0 -0.0395,0.113 -0.16447,0.2511 -0.12498,0.13811 -0.25549,0.2511 -0.29002,0.2511 -0.0345,0 0.0395,-0.11299 0.16447,-0.2511 z m 10.28313,-0.0314 -0.23917,-0.28249 0.28248,0.23917 c 0.26547,0.22476 0.33964,0.3258 0.23917,0.3258 -0.0238,0 -0.15094,-0.12712 -0.28248,-0.28248 z m 8.03516,0 -0.23917,-0.28249 0.28249,0.23917 c 0.26547,0.22476 0.33964,0.3258 0.23917,0.3258 -0.0238,0 -0.15094,-0.12712 -0.28249,-0.28248 z m 8.03517,0 -0.23917,-0.28249 0.28248,0.23917 c 0.26547,0.22476 0.33965,0.3258 0.23917,0.3258 -0.0238,0 -0.15094,-0.12712 -0.28248,-0.28248 z m 6.67935,0.0123 c 0.13079,-0.18313 0.26291,-0.30868 0.2936,-0.279 0.0307,0.0297 -0.0763,0.17951 -0.2378,0.33296 l -0.2936,0.279 z m 2.98796,-0.0123 -0.23917,-0.28249 0.28248,0.23917 c 0.26546,0.22476 0.33964,0.3258 0.23917,0.3258 -0.0238,0 -0.15094,-0.12712 -0.28248,-0.28248 z m -86.505646,-1.41244 c 2.51e-4,-0.89768 0.02022,-1.24843 0.04444,-0.77946 0.02422,0.46897 0.02404,1.20344 -3.77e-4,1.63214 -0.02444,0.42871 -0.04426,0.045 -0.04404,-0.85268 z m 29.629674,0 c 2.51e-4,-0.89768 0.02022,-1.24843 0.04444,-0.77946 0.02422,0.46897 0.02404,1.20344 -3.77e-4,1.63214 -0.02444,0.42871 -0.04426,0.045 -0.04404,-0.85268 z m 11.048352,0 c 2.5e-4,-0.89768 0.0202,-1.24843 0.0444,-0.77946 0.0242,0.46897 0.024,1.20344 -3.7e-4,1.63214 -0.0244,0.42871 -0.0443,0.045 -0.044,-0.85268 z m 32.76841,0 c 2.5e-4,-0.89768 0.0202,-1.24843 0.0444,-0.77946 0.0242,0.46897 0.024,1.20344 -3.8e-4,1.63214 -0.0244,0.42871 -0.0443,0.045 -0.044,-0.85268 z m -55.484032,1.18437 c -0.04551,-0.0736 -0.05583,-0.16083 -0.02292,-0.19374 0.03291,-0.0329 0.09329,0.0273 0.134181,0.1339 0.08489,0.22124 0.01254,0.26015 -0.111262,0.0598 z m 9.242961,-0.0649 c 0.006,-0.14626 0.03577,-0.17601 0.07585,-0.0759 0.03627,0.0906 0.03181,0.19892 -0.0099,0.24064 -0.04172,0.0417 -0.07139,-0.0324 -0.06594,-0.16478 z m 54.410611,0.0649 c -0.0455,-0.0736 -0.0558,-0.16083 -0.0229,-0.19374 0.0329,-0.0329 0.0933,0.0273 0.13419,0.1339 0.0849,0.22124 0.0125,0.26015 -0.11127,0.0598 z m -56.743188,-0.1172 c -0.239594,-0.10295 -0.238155,-0.1083 0.03139,-0.11672 0.155367,-0.005 0.282486,0.0477 0.282486,0.11672 0,0.0691 -0.01412,0.12158 -0.03139,0.11673 -0.01726,-0.005 -0.144382,-0.0574 -0.282486,-0.11673 z m 10.99549,-0.0732 c 0.006,-0.14626 0.03577,-0.17601 0.07585,-0.0759 0.03627,0.0906 0.03181,0.19892 -0.0099,0.24064 -0.04172,0.0417 -0.07139,-0.0324 -0.06594,-0.16478 z m -15.515271,-0.0523 c -0.204697,-0.088 -0.211866,-0.10953 -0.0388,-0.11672 0.116766,-0.005 0.247219,0.0477 0.289896,0.11672 0.08922,0.14437 0.08486,0.14437 -0.251099,0 z m 42.885049,-0.0732 c 0.006,-0.14626 0.0358,-0.17601 0.0759,-0.0759 0.0363,0.0906 0.0318,0.19892 -0.01,0.24064 -0.0417,0.0417 -0.0714,-0.0324 -0.0659,-0.16478 z m 20.76853,0.0732 c -0.2047,-0.088 -0.21187,-0.10953 -0.0388,-0.11672 0.11677,-0.005 0.24722,0.0477 0.2899,0.11672 0.0892,0.14437 0.0848,0.14437 -0.2511,0 z m -99.990238,-0.32433 c 0.006,-0.14626 0.03577,-0.17601 0.07585,-0.0759 0.03627,0.0906 0.03181,0.19891 -0.0099,0.24063 -0.04172,0.0417 -0.07139,-0.0324 -0.06594,-0.16478 z m 42.911991,-0.0209 c -0.156167,-0.19913 -0.151727,-0.20357 0.0474,-0.0474 0.120842,0.0948 0.219712,0.19364 0.219712,0.21971 0,0.10333 -0.1031,0.0368 -0.267114,-0.17231 z m 0.46874,-0.13784 -0.237797,-0.33297 0.293597,0.279 c 0.161478,0.15345 0.268487,0.30329 0.237796,0.33297 -0.03069,0.0297 -0.162807,-0.0959 -0.293596,-0.279 z m 16.380807,0.15877 c 0.006,-0.14626 0.0358,-0.17601 0.0759,-0.0759 0.0363,0.0906 0.0318,0.19891 -0.01,0.24063 -0.0417,0.0417 -0.0714,-0.0324 -0.0659,-0.16478 z m 4.26869,0 c 0.006,-0.14626 0.0358,-0.17601 0.0759,-0.0759 0.0363,0.0906 0.0318,0.19891 -0.01,0.24063 -0.0417,0.0417 -0.0714,-0.0324 -0.0659,-0.16478 z m -58.747239,-0.17786 c 0,-0.17263 0.0285,-0.24326 0.06333,-0.15694 0.03483,0.0863 0.03483,0.22756 0,0.31387 -0.03483,0.0863 -0.06333,0.0157 -0.06333,-0.15693 z m 28.515814,-0.31388 c 0.001,-0.34526 0.02533,-0.4716 0.05418,-0.28076 0.02886,0.19085 0.02809,0.47333 -0.0017,0.62775 -0.0298,0.15442 -0.05341,-0.002 -0.05247,-0.34699 z m 18.168764,0.51757 c 0,-0.0261 0.09887,-0.12494 0.219712,-0.21971 0.199129,-0.15617 0.20357,-0.15172 0.0474,0.0474 -0.164014,0.20914 -0.267114,0.27565 -0.267114,0.17231 z m 32.411581,-0.20369 c 0,-0.17263 0.0285,-0.24326 0.0633,-0.15694 0.0348,0.0863 0.0348,0.22756 0,0.31387 -0.0348,0.0863 -0.0633,0.0157 -0.0633,-0.15693 z m 8.03517,0 c 0,-0.17263 0.0285,-0.24326 0.0633,-0.15694 0.0348,0.0863 0.0348,0.22756 0,0.31387 -0.0348,0.0863 -0.0633,0.0157 -0.0633,-0.15693 z m 5.03806,-0.31388 c 0.001,-0.34526 0.0253,-0.4716 0.0542,-0.28076 0.0289,0.19085 0.0281,0.47333 -0.002,0.62775 -0.0298,0.15442 -0.0534,-0.002 -0.0525,-0.34699 z m 4.62925,0.31388 c 0,-0.17263 0.0285,-0.24326 0.0633,-0.15694 0.0348,0.0863 0.0348,0.22756 0,0.31387 -0.0348,0.0863 -0.0633,0.0157 -0.0633,-0.15693 z m -42.80053,-0.31388 c 0.001,-0.27621 0.0271,-0.37442 0.0571,-0.21824 0.03,0.15617 0.0289,0.38216 -0.003,0.50219 -0.0314,0.12004 -0.056,-0.008 -0.0546,-0.28395 z m 19.58571,0 c 0.001,-0.27621 0.0271,-0.37442 0.0571,-0.21824 0.03,0.15617 0.0289,0.38216 -0.003,0.50219 -0.0314,0.12004 -0.056,-0.008 -0.0546,-0.28395 z m -74.076713,-0.0628 c 0,-0.24168 0.02584,-0.34055 0.05742,-0.21971 0.03158,0.12084 0.03158,0.31858 0,0.43942 -0.03158,0.12084 -0.05742,0.022 -0.05742,-0.21971 z m 3.134086,0.0628 c 0.0026,-0.20715 0.0307,-0.2767 0.06253,-0.15454 0.03183,0.12215 0.02974,0.29164 -0.0047,0.37664 -0.03439,0.085 -0.06043,-0.0149 -0.05788,-0.2221 z m 75.962077,-0.0628 c 0,-0.24168 0.0258,-0.34055 0.0574,-0.21971 0.0316,0.12084 0.0316,0.31858 0,0.43942 -0.0316,0.12084 -0.0574,0.022 -0.0574,-0.21971 z m 3.13408,0.0628 c 0.003,-0.20715 0.0307,-0.2767 0.0625,-0.15454 0.0318,0.12215 0.0297,0.29164 -0.005,0.37664 -0.0344,0.085 -0.0604,-0.0149 -0.0579,-0.2221 z m 4.90108,-0.0628 c 0,-0.24168 0.0258,-0.34055 0.0574,-0.21971 0.0316,0.12084 0.0316,0.31858 0,0.43942 -0.0316,0.12084 -0.0574,0.022 -0.0574,-0.21971 z m 3.13409,0.0628 c 0.003,-0.20715 0.0307,-0.2767 0.0625,-0.15454 0.0318,0.12215 0.0297,0.29164 -0.005,0.37664 -0.0344,0.085 -0.0604,-0.0149 -0.0579,-0.2221 z m 6.53322,-0.0628 c 0,-0.24168 0.0258,-0.34055 0.0574,-0.21971 0.0316,0.12084 0.0316,0.31858 0,0.43942 -0.0316,0.12084 -0.0574,0.022 -0.0574,-0.21971 z m 3.13408,0.0628 c 0.003,-0.20715 0.0307,-0.2767 0.0625,-0.15454 0.0318,0.12215 0.0297,0.29164 -0.005,0.37664 -0.0344,0.085 -0.0604,-0.0149 -0.0579,-0.2221 z m -71.442288,-0.0628 c 0,-0.17263 0.0285,-0.24325 0.06333,-0.15694 0.03483,0.0863 0.03483,0.22756 0,0.31388 -0.03483,0.0863 -0.06333,0.0157 -0.06333,-0.15694 z m 63.653578,0 c 0,-0.17263 0.0285,-0.24325 0.0633,-0.15694 0.0348,0.0863 0.0348,0.22756 0,0.31388 -0.0348,0.0863 -0.0633,0.0157 -0.0633,-0.15694 z M 51.957681,160.958 c 0,-0.17263 0.0285,-0.24325 0.06333,-0.15694 0.03483,0.0863 0.03483,0.22756 0,0.31388 -0.03483,0.0863 -0.06333,0.0157 -0.06333,-0.15694 z m 79.096159,0 c 0,-0.17263 0.0285,-0.24325 0.0633,-0.15694 0.0348,0.0863 0.0348,0.22756 0,0.31388 -0.0348,0.0863 -0.0633,0.0157 -0.0633,-0.15694 z m 8.03517,0 c 0,-0.17263 0.0285,-0.24325 0.0633,-0.15694 0.0348,0.0863 0.0348,0.22756 0,0.31388 -0.0348,0.0863 -0.0633,0.0157 -0.0633,-0.15694 z m 9.66731,0 c 0,-0.17263 0.0285,-0.24325 0.0633,-0.15694 0.0348,0.0863 0.0348,0.22756 0,0.31388 -0.0348,0.0863 -0.0633,0.0157 -0.0633,-0.15694 z M 46.684603,160.7069 c 0,-0.17263 0.0285,-0.24325 0.06333,-0.15694 0.03483,0.0863 0.03483,0.22756 0,0.31388 -0.03483,0.0863 -0.06333,0.0157 -0.06333,-0.15694 z m 62.523627,0 c 0,-0.17263 0.0285,-0.24325 0.0633,-0.15694 0.0348,0.0863 0.0348,0.22756 0,0.31388 -0.0348,0.0863 -0.0633,0.0157 -0.0633,-0.15694 z m 1.5066,0 c 0,-0.17263 0.0285,-0.24325 0.0633,-0.15694 0.0348,0.0863 0.0348,0.22756 0,0.31388 -0.0348,0.0863 -0.0633,0.0157 -0.0633,-0.15694 z M 82.948576,160.623 c 0.103578,-0.0437 0.234999,-0.14154 0.292045,-0.2175 0.06671,-0.0888 0.0854,-0.0709 0.05237,0.0502 -0.02824,0.10358 -0.159661,0.20145 -0.292044,0.2175 -0.169121,0.0205 -0.184694,0.006 -0.05237,-0.0502 z m 42.947824,-0.11498 c 0.006,-0.14625 0.0358,-0.176 0.0759,-0.0759 0.0363,0.0906 0.0318,0.19892 -0.01,0.24064 -0.0417,0.0417 -0.0714,-0.0324 -0.0659,-0.16479 z m 20.70575,0.11498 c 0.10358,-0.0437 0.235,-0.14154 0.29204,-0.2175 0.0667,-0.0888 0.0854,-0.0709 0.0524,0.0502 -0.0283,0.10358 -0.15966,0.20145 -0.29205,0.2175 -0.16912,0.0205 -0.18469,0.006 -0.0524,-0.0502 z m -73.687619,-0.24053 c 0.006,-0.14625 0.03577,-0.176 0.07585,-0.0759 0.03627,0.0906 0.03181,0.19892 -0.0099,0.24064 -0.04172,0.0417 -0.07139,-0.0324 -0.06594,-0.16479 z m 14.940386,-0.12554 c 0.006,-0.14626 0.03577,-0.17601 0.07585,-0.0759 0.03627,0.0906 0.03181,0.19892 -0.0099,0.24064 -0.04172,0.0417 -0.07139,-0.0324 -0.06594,-0.16478 z m 2.093042,0.11563 c 0.08631,-0.0348 0.227558,-0.0348 0.313874,0 0.08631,0.0348 0.01569,0.0633 -0.156937,0.0633 -0.172631,0 -0.243252,-0.0285 -0.156937,-0.0633 z m 10.713001,-0.11563 c 0.006,-0.14626 0.0358,-0.17601 0.0759,-0.0759 0.0363,0.0906 0.0318,0.19892 -0.01,0.24064 -0.0417,0.0417 -0.0714,-0.0324 -0.0659,-0.16478 z M 75.927718,160.1314 c 0.006,-0.14626 0.03577,-0.17601 0.07585,-0.0759 0.03627,0.0906 0.03181,0.19892 -0.0099,0.24064 -0.04172,0.0417 -0.07139,-0.0324 -0.06594,-0.16478 z m -23.550437,-0.17787 c 0.124983,-0.1381 0.255491,-0.2511 0.290017,-0.2511 0.03453,0 -0.03948,0.113 -0.164468,0.2511 -0.124983,0.13811 -0.25549,0.2511 -0.290016,0.2511 -0.03453,0 0.03948,-0.11299 0.164467,-0.2511 z m 13.935991,0 c 0.124983,-0.1381 0.25549,-0.2511 0.290017,-0.2511 0.03453,0 -0.03948,0.113 -0.164468,0.2511 -0.124983,0.13811 -0.25549,0.2511 -0.290016,0.2511 -0.03453,0 0.03948,-0.11299 0.164467,-0.2511 z m 7.407418,0 c 0.124984,-0.1381 0.255491,-0.2511 0.290017,-0.2511 0.03453,0 -0.03948,0.113 -0.164467,0.2511 -0.124983,0.13811 -0.255491,0.2511 -0.290017,0.2511 -0.03453,0 0.03948,-0.11299 0.164467,-0.2511 z m 1.581973,-0.0371 c -0.15881,-0.26445 -0.156135,-0.26713 0.06005,-0.0601 0.124448,0.1192 0.199244,0.24375 0.166215,0.27678 -0.03303,0.033 -0.134851,-0.0645 -0.226269,-0.21672 z m 56.170777,0.0371 c 0.12498,-0.1381 0.25549,-0.2511 0.29002,-0.2511 0.0345,0 -0.0395,0.113 -0.16447,0.2511 -0.12498,0.13811 -0.25549,0.2511 -0.29002,0.2511 -0.0345,0 0.0395,-0.11299 0.16447,-0.2511 z m 8.03517,0 c 0.12498,-0.1381 0.25549,-0.2511 0.29001,-0.2511 0.0345,0 -0.0395,0.113 -0.16446,0.2511 -0.12499,0.13811 -0.25549,0.2511 -0.29002,0.2511 -0.0345,0 0.0395,-0.11299 0.16447,-0.2511 z m 9.66731,0 c 0.12498,-0.1381 0.25549,-0.2511 0.29002,-0.2511 0.0345,0 -0.0395,0.113 -0.16447,0.2511 -0.12499,0.13811 -0.2555,0.2511 -0.29002,0.2511 -0.0345,0 0.0395,-0.11299 0.16447,-0.2511 z m -100.141715,-0.0942 c -0.156167,-0.19913 -0.151726,-0.20357 0.0474,-0.0474 0.120842,0.0948 0.219712,0.19364 0.219712,0.21971 0,0.10333 -0.1031,0.0368 -0.267114,-0.17231 z m 33.396158,0 c -0.156167,-0.19913 -0.151726,-0.20357 0.0474,-0.0474 0.209134,0.16401 0.275641,0.26711 0.172309,0.26711 -0.02607,0 -0.124941,-0.0989 -0.219712,-0.21971 z m 7.15632,0 c -0.156167,-0.19913 -0.151727,-0.20357 0.0474,-0.0474 0.120842,0.0948 0.219712,0.19364 0.219712,0.21971 0,0.10333 -0.1031,0.0368 -0.267114,-0.17231 z m 23.477747,0 c -0.15617,-0.19913 -0.15173,-0.20357 0.0474,-0.0474 0.12084,0.0948 0.21971,0.19364 0.21971,0.21971 0,0.10333 -0.1031,0.0368 -0.26711,-0.17231 z m 33.01951,0 c -0.15617,-0.19913 -0.15173,-0.20357 0.0474,-0.0474 0.20914,0.16401 0.27564,0.26711 0.17231,0.26711 -0.0261,0 -0.12494,-0.0989 -0.21971,-0.21971 z m -94.083307,-0.15694 c 0.124983,-0.1381 0.25549,-0.25109 0.290016,-0.25109 0.03453,0 -0.03948,0.11299 -0.164467,0.25109 -0.124983,0.13811 -0.255491,0.2511 -0.290017,0.2511 -0.03453,0 0.03948,-0.11299 0.164468,-0.2511 z m 21.468958,0 c 0.124984,-0.1381 0.255491,-0.25109 0.290017,-0.25109 0.03453,0 -0.03948,0.11299 -0.164467,0.25109 -0.124983,0.13811 -0.255491,0.2511 -0.290017,0.2511 -0.03453,0 0.03948,-0.11299 0.164467,-0.2511 z m 57.627199,0 c 0.12499,-0.1381 0.25549,-0.25109 0.29002,-0.25109 0.0345,0 -0.0395,0.11299 -0.16447,0.25109 -0.12498,0.13811 -0.25549,0.2511 -0.29001,0.2511 -0.0345,0 0.0395,-0.11299 0.16446,-0.2511 z m 8.03517,0 c 0.12498,-0.1381 0.25549,-0.25109 0.29002,-0.25109 0.0345,0 -0.0395,0.11299 -0.16447,0.25109 -0.12499,0.13811 -0.25549,0.2511 -0.29002,0.2511 -0.0345,0 0.0395,-0.11299 0.16447,-0.2511 z m 9.66731,0 c 0.12498,-0.1381 0.25549,-0.25109 0.29002,-0.25109 0.0345,0 -0.0395,0.11299 -0.16447,0.25109 -0.12499,0.13811 -0.2555,0.2511 -0.29002,0.2511 -0.0345,0 0.0395,-0.11299 0.16447,-0.2511 z m -91.40001,-0.12554 c 0.124983,-0.13811 0.25549,-0.2511 0.290016,-0.2511 0.03453,0 -0.03948,0.11299 -0.164467,0.2511 -0.124983,0.1381 -0.255491,0.25109 -0.290017,0.25109 -0.03453,0 0.03948,-0.11299 0.164468,-0.25109 z m 13.496567,0.20369 c 0,-0.0261 0.09887,-0.12494 0.219712,-0.21971 0.199129,-0.15617 0.20357,-0.15173 0.0474,0.0474 -0.164014,0.20914 -0.267114,0.27564 -0.267114,0.17231 z m 19.067504,-0.17231 c -0.156167,-0.19913 -0.151726,-0.20357 0.0474,-0.0474 0.120841,0.0948 0.219711,0.19364 0.219711,0.21971 0,0.10333 -0.1031,0.0368 -0.267114,-0.17231 z m 5.854065,-0.0314 c 0.124984,-0.13811 0.255491,-0.2511 0.290017,-0.2511 0.03453,0 -0.03948,0.11299 -0.164467,0.2511 -0.124983,0.1381 -0.255491,0.25109 -0.290017,0.25109 -0.03453,0 0.03948,-0.11299 0.164467,-0.25109 z m 10.608924,0.20369 c 0,-0.0261 0.0989,-0.12494 0.21971,-0.21971 0.19913,-0.15617 0.20357,-0.15173 0.0474,0.0474 -0.16402,0.20914 -0.26712,0.27564 -0.26712,0.17231 z m 21.90838,-0.20369 c 0.12499,-0.13811 0.25549,-0.2511 0.29002,-0.2511 0.0345,0 -0.0395,0.11299 -0.16447,0.2511 -0.12498,0.1381 -0.25549,0.25109 -0.29001,0.25109 -0.0345,0 0.0395,-0.11299 0.16446,-0.25109 z m -70.032951,0.0359 c 0.151109,-0.0281 0.300725,-0.13354 0.332482,-0.23429 0.03662,-0.11618 0.05054,-0.10192 0.03806,0.039 -0.01276,0.14405 -0.12967,0.22643 -0.332482,0.23429 -0.257674,0.01 -0.264382,0.003 -0.03806,-0.039 z m 9.815975,-0.13001 c -0.156167,-0.19913 -0.151727,-0.20357 0.0474,-0.0474 0.120842,0.0948 0.219712,0.19364 0.219712,0.21971 0,0.10333 -0.1031,0.0368 -0.267114,-0.17231 z m 4.896429,0 c -0.156167,-0.19913 -0.151726,-0.20357 0.0474,-0.0474 0.120841,0.0948 0.219711,0.19364 0.219711,0.21971 0,0.10333 -0.1031,0.0368 -0.267114,-0.17231 z m 23.705733,0.13008 c 0.151109,-0.0281 0.300725,-0.13354 0.332482,-0.23429 0.03662,-0.11618 0.05054,-0.10192 0.03806,0.039 -0.01276,0.14405 -0.12967,0.22643 -0.332481,0.23429 -0.257674,0.01 -0.264382,0.003 -0.03806,-0.039 z m 32.517304,0 c 0.15111,-0.0281 0.30073,-0.13354 0.33249,-0.23429 0.0366,-0.11618 0.0505,-0.10192 0.038,0.039 -0.0128,0.14405 -0.12967,0.22643 -0.33248,0.23429 -0.25767,0.01 -0.26438,0.003 -0.0381,-0.039 z m -79.800409,-0.2347 c 0.006,-0.14626 0.03577,-0.17601 0.07585,-0.0759 0.03627,0.0906 0.03181,0.19891 -0.0099,0.24063 -0.04172,0.0417 -0.07139,-0.0324 -0.06594,-0.16478 z m 12.429397,0 c 0.006,-0.14626 0.03577,-0.17601 0.07585,-0.0759 0.03627,0.0906 0.03181,0.19891 -0.0099,0.24063 -0.04172,0.0417 -0.07139,-0.0324 -0.06594,-0.16478 z m 2.008791,0 c 0.006,-0.14626 0.03577,-0.17601 0.07585,-0.0759 0.03627,0.0906 0.03181,0.19891 -0.0099,0.24063 -0.04172,0.0417 -0.07139,-0.0324 -0.06594,-0.16478 z m 27.620883,0 c 0.006,-0.14626 0.03577,-0.17601 0.07585,-0.0759 0.03627,0.0906 0.03181,0.19891 -0.0099,0.24063 -0.04172,0.0417 -0.07139,-0.0324 -0.06594,-0.16478 z m 2.008791,0 c 0.006,-0.14626 0.03578,-0.17601 0.07585,-0.0759 0.03627,0.0906 0.03181,0.19891 -0.0099,0.24063 -0.04172,0.0417 -0.07139,-0.0324 -0.06594,-0.16478 z m 9.039567,0 c 0.006,-0.14626 0.0358,-0.17601 0.0758,-0.0759 0.0363,0.0906 0.0318,0.19891 -0.01,0.24063 -0.0417,0.0417 -0.0714,-0.0324 -0.0659,-0.16478 z m 2.00879,0 c 0.006,-0.14626 0.0358,-0.17601 0.0759,-0.0759 0.0363,0.0906 0.0318,0.19891 -0.01,0.24063 -0.0417,0.0417 -0.0714,-0.0324 -0.0659,-0.16478 z m 8.914,0 c 0.006,-0.14626 0.0358,-0.17601 0.0759,-0.0759 0.0363,0.0906 0.0318,0.19891 -0.01,0.24063 -0.0417,0.0417 -0.0714,-0.0324 -0.0659,-0.16478 z m 21.84561,0 c 0.006,-0.14626 0.0358,-0.17601 0.0759,-0.0759 0.0363,0.0906 0.0318,0.19891 -0.01,0.24063 -0.0417,0.0417 -0.0714,-0.0324 -0.0659,-0.16478 z m 2.00879,0 c 0.006,-0.14626 0.0358,-0.17601 0.0759,-0.0759 0.0363,0.0906 0.0318,0.19891 -0.01,0.24063 -0.0417,0.0417 -0.0714,-0.0324 -0.0659,-0.16478 z m -74.677643,-0.68006 c 0,-0.31074 0.02448,-0.43785 0.05441,-0.28249 0.02993,0.15537 0.02993,0.40961 0,0.56498 -0.02992,0.15536 -0.05441,0.0282 -0.05441,-0.28249 z m 29.629674,0 c 0,-0.31074 0.02449,-0.43785 0.05441,-0.28249 0.02993,0.15537 0.02993,0.40961 0,0.56498 -0.02992,0.15536 -0.05441,0.0282 -0.05441,-0.28249 z m 11.048349,0 c 0,-0.31074 0.0245,-0.43785 0.0544,-0.28249 0.0299,0.15537 0.0299,0.40961 0,0.56498 -0.0299,0.15536 -0.0544,0.0282 -0.0544,-0.28249 z m 32.76841,0 c 0,-0.31074 0.0245,-0.43785 0.0544,-0.28249 0.0299,0.15537 0.0299,0.40961 0,0.56498 -0.0299,0.15536 -0.0544,0.0282 -0.0544,-0.28249 z m -76.069457,-0.55896 c -0.095,-0.24757 0.04725,-0.44855 0.304962,-0.43087 0.179699,0.0123 0.176771,0.0237 -0.01906,0.0742 -0.155353,0.0401 -0.210772,0.13839 -0.16869,0.29931 0.0733,0.28031 -0.01506,0.32353 -0.117213,0.0573 z m 17.828024,0 c -0.095,-0.24757 0.04725,-0.44855 0.304962,-0.43087 0.179699,0.0123 0.176771,0.0237 -0.01906,0.0742 -0.155354,0.0401 -0.210773,0.13839 -0.168691,0.29931 0.0733,0.28031 -0.01507,0.32353 -0.117213,0.0573 z m 4.574081,-5.05098 c 0.09063,-0.0363 0.198918,-0.0318 0.240637,0.01 0.04172,0.0417 -0.03243,0.0714 -0.164784,0.066 -0.146259,-0.006 -0.176008,-0.0358 -0.07585,-0.0759 z m 47.959892,0 c 0.0906,-0.0363 0.19892,-0.0318 0.24064,0.01 0.0417,0.0417 -0.0324,0.0714 -0.16479,0.066 -0.14626,-0.006 -0.176,-0.0358 -0.0758,-0.0759 z m 4.97088,-0.0882 c -0.0367,-0.0957 -0.0448,-0.42054 -0.018,-0.72191 l 0.0488,-0.54795 0.0219,0.64868 c 0.013,0.38319 0.0862,0.67458 0.17888,0.71199 0.12292,0.0496 0.12206,0.0655 -0.004,0.0732 -0.0885,0.005 -0.19091,-0.0684 -0.22763,-0.16405 z m -51.400638,-0.64211 c 0.162178,-0.17263 0.323118,-0.31387 0.357644,-0.31387 0.03453,0 -0.06992,0.14124 -0.232095,0.31387 -0.162178,0.17263 -0.323118,0.31387 -0.357644,0.31387 -0.03453,0 0.06992,-0.14124 0.232095,-0.31387 z m 47.959888,0 c 0.16218,-0.17263 0.32312,-0.31387 0.35765,-0.31387 0.0345,0 -0.0699,0.14124 -0.2321,0.31387 -0.16217,0.17263 -0.32311,0.31387 -0.35764,0.31387 -0.0345,0 0.0699,-0.14124 0.23209,-0.31387 z m -52.484085,-0.005 c -0.130732,-0.15752 -0.130163,-0.22193 0.0031,-0.34526 0.128879,-0.11933 0.144161,-0.11702 0.07175,0.0108 -0.0506,0.0893 -0.02372,0.24471 0.05973,0.34526 0.08345,0.10055 0.123483,0.18283 0.08896,0.18283 -0.03453,0 -0.135095,-0.0871 -0.223485,-0.19365 z m 47.959895,0 c -0.13073,-0.15752 -0.13017,-0.22193 0.003,-0.34526 0.12888,-0.11933 0.14416,-0.11702 0.0717,0.0108 -0.0506,0.0893 -0.0237,0.24471 0.0597,0.34526 0.0834,0.10055 0.12348,0.18283 0.089,0.18283 -0.0345,0 -0.1351,-0.0871 -0.22349,-0.19365 z m -45.852525,-0.51757 c 0.08631,-0.0348 0.227558,-0.0348 0.313873,0 0.08632,0.0348 0.01569,0.0633 -0.156937,0.0633 -0.17263,0 -0.243252,-0.0285 -0.156936,-0.0633 z m 47.959895,0 c 0.0863,-0.0348 0.22756,-0.0348 0.31387,0 0.0863,0.0348 0.0157,0.0633 -0.15694,0.0633 -0.17263,0 -0.24325,-0.0285 -0.15693,-0.0633 z m 6.41087,-0.12817 c 0.0906,-0.0363 0.19891,-0.0318 0.24063,0.01 0.0417,0.0417 -0.0324,0.0714 -0.16478,0.0659 -0.14626,-0.006 -0.17601,-0.0358 -0.0759,-0.0759 z m 0.40019,-0.0872 c 0,-0.0261 0.0989,-0.12494 0.21971,-0.21972 0.19913,-0.15616 0.20357,-0.15172 0.0474,0.0474 -0.16401,0.20913 -0.26711,0.27564 -0.26711,0.17231 z m -51.545754,-3.97018 c 0,-1.89894 0.01745,-2.67578 0.03878,-1.72631 0.02133,0.94947 0.02133,2.50314 0,3.45261 -0.02133,0.94947 -0.03878,0.17263 -0.03878,-1.7263 z m 47.959894,0 c 0,-1.89894 0.0174,-2.67578 0.0388,-1.72631 0.0213,0.94947 0.0213,2.50314 0,3.45261 -0.0213,0.94947 -0.0388,0.17263 -0.0388,-1.7263 z m -43.016533,3.05297 c 0.09063,-0.0363 0.198918,-0.0318 0.240637,0.01 0.04172,0.0417 -0.03243,0.0714 -0.164784,0.0659 -0.146259,-0.006 -0.176008,-0.0358 -0.07585,-0.0759 z m 1.632143,0 c 0.09063,-0.0363 0.198918,-0.0318 0.240637,0.01 0.04172,0.0417 -0.03243,0.0714 -0.164784,0.0659 -0.146259,-0.006 -0.176008,-0.0358 -0.07585,-0.0759 z m 45.48236,-0.11302 c 0.006,-0.14626 0.0358,-0.17601 0.0759,-0.0759 0.0363,0.0906 0.0318,0.19892 -0.01,0.24064 -0.0417,0.0417 -0.0714,-0.0324 -0.0659,-0.16478 z m -97.155915,-3.40637 -0.02928,-3.54238 -1.286882,-0.0407 -1.286882,-0.0407 1.290822,-0.0265 c 0.944644,-0.0194 1.307157,0.0161 1.351729,0.13224 0.0335,0.0873 0.0449,1.71159 0.02534,3.60955 l -0.03556,3.45083 z m 1.78825,-0.0986 0.0029,-3.51538 1.280746,-0.0357 1.280746,-0.0357 0.04689,-0.65481 0.04689,-0.65481 -0.0094,0.69053 -0.0094,0.69052 -1.284935,0.0358 -1.284933,0.0357 -0.03627,3.47963 -0.03627,3.47963 0.0029,-3.51539 z m 27.239094,0.37665 c 7.1e-5,-1.79536 0.01771,-2.51236 0.03919,-1.59334 0.02148,0.91901 0.02142,2.38794 -1.25e-4,3.26428 -0.02155,0.87634 -0.03913,0.12442 -0.03906,-1.67094 z m 4.140543,0.94162 c 0,-1.27746 0.01864,-1.80006 0.04143,-1.16133 0.02279,0.63873 0.02279,1.68393 0,2.32267 -0.02278,0.63873 -0.04143,0.11613 -0.04143,-1.16134 z m 26.187726,1.64135 c 0,-0.48351 -0.04796,-0.63107 -0.219712,-0.67596 -0.165337,-0.0432 -0.149802,-0.061 0.06278,-0.072 0.260474,-0.0134 0.282486,0.0392 0.282486,0.67596 0,0.37979 -0.02825,0.69052 -0.06277,0.69052 -0.03453,0 -0.06278,-0.27834 -0.06278,-0.61854 z m 18.330222,0 c 0,-0.48351 -0.048,-0.63107 -0.21972,-0.67596 -0.16533,-0.0432 -0.1498,-0.061 0.0628,-0.072 0.26047,-0.0134 0.28249,0.0392 0.28249,0.67596 0,0.37979 -0.0282,0.69052 -0.0628,0.69052 -0.0345,0 -0.0628,-0.27834 -0.0628,-0.61854 z m 25.73764,0.57114 c 0,-0.0261 0.0989,-0.12494 0.21971,-0.21971 0.19913,-0.15617 0.20357,-0.15173 0.0474,0.0474 -0.16401,0.20914 -0.26711,0.27564 -0.26711,0.17231 z m 12.60965,-3.15411 c 7e-5,-1.79536 0.0177,-2.51236 0.0392,-1.59334 0.0215,0.91901 0.0214,2.38794 0,3.26428 -0.0216,0.87634 -0.0391,0.12442 -0.0391,-1.67094 z m -100.933699,2.82492 c -0.04268,-0.0691 -0.01776,-0.12554 0.05537,-0.12554 0.07313,0 0.132959,0.0565 0.132959,0.12554 0,0.0691 -0.02491,0.12555 -0.05537,0.12555 -0.03045,0 -0.09028,-0.0565 -0.132959,-0.12555 z m 25.037616,-0.21971 -0.304371,-0.34526 0.345261,0.30437 c 0.322698,0.28448 0.402837,0.38615 0.304371,0.38615 -0.02249,0 -0.177856,-0.15536 -0.345261,-0.34526 z m 30.204143,0.21971 c -0.0427,-0.0691 -0.0178,-0.12554 0.0554,-0.12554 0.0731,0 0.13296,0.0565 0.13296,0.12554 0,0.0691 -0.0249,0.12555 -0.0554,0.12555 -0.0304,0 -0.0903,-0.0565 -0.13296,-0.12555 z m 17.75575,-0.21971 -0.30437,-0.34526 0.34526,0.30437 c 0.18989,0.16741 0.34526,0.32278 0.34526,0.34526 0,0.0985 -0.10167,0.0183 -0.38615,-0.30437 z m 21.91788,0.21971 c -0.0427,-0.0691 -0.0178,-0.12554 0.0554,-0.12554 0.0731,0 0.13296,0.0565 0.13296,0.12554 0,0.0691 -0.0249,0.12555 -0.0554,0.12555 -0.0305,0 -0.0903,-0.0565 -0.13296,-0.12555 z m -56.685577,-0.31387 c 0.162179,-0.17263 0.323118,-0.31387 0.357644,-0.31387 0.03453,0 -0.06992,0.14124 -0.232094,0.31387 -0.162179,0.17263 -0.323118,0.31387 -0.357644,0.31387 -0.03453,0 0.06992,-0.14124 0.232094,-0.31387 z m -5.218201,-0.21971 -0.36875,-0.40804 0.408036,0.36875 c 0.380347,0.34373 0.465745,0.44733 0.36875,0.44733 -0.02161,0 -0.205223,-0.18362 -0.408036,-0.40804 z m -31.266161,-1.72631 c 0,-1.0703 0.01926,-1.50816 0.04279,-0.973 0.02353,0.53515 0.02353,1.41086 0,1.94601 -0.02353,0.53516 -0.04279,0.0973 -0.04279,-0.97301 z m 55.241759,0 c 0,-1.0703 0.0193,-1.50816 0.0428,-0.973 0.0235,0.53515 0.0235,1.41086 0,1.94601 -0.0235,0.53516 -0.0428,0.0973 -0.0428,-0.97301 z m 39.67364,0 c 0,-1.0703 0.0192,-1.50816 0.0428,-0.973 0.0235,0.53515 0.0235,1.41086 0,1.94601 -0.0235,0.53516 -0.0428,0.0973 -0.0428,-0.97301 z m -97.945342,1.41959 c 0.122156,-0.0318 0.291648,-0.0297 0.376648,0.005 0.085,0.0344 -0.01494,0.0604 -0.2221,0.0579 -0.207157,-0.003 -0.276704,-0.0307 -0.154548,-0.0625 z m 55.241762,0 c 0.12216,-0.0318 0.29165,-0.0297 0.37665,0.005 0.085,0.0344 -0.0149,0.0604 -0.2221,0.0579 -0.20716,-0.003 -0.27671,-0.0307 -0.15455,-0.0625 z m 39.67363,0 c 0.12216,-0.0318 0.29165,-0.0297 0.37665,0.005 0.085,0.0344 -0.0149,0.0604 -0.2221,0.0579 -0.20716,-0.003 -0.2767,-0.0307 -0.15455,-0.0625 z m -58.312265,-0.12431 c 0.09063,-0.0363 0.198918,-0.0318 0.240637,0.01 0.04172,0.0417 -0.03243,0.0714 -0.164784,0.0659 -0.146258,-0.006 -0.176007,-0.0358 -0.07585,-0.0758 z m 0.753297,0 c 0.09063,-0.0363 0.198918,-0.0318 0.240637,0.01 0.04172,0.0417 -0.03244,0.0714 -0.164784,0.0659 -0.146259,-0.006 -0.176008,-0.0358 -0.07585,-0.0758 z m 33.545418,-0.22792 c -0.28354,-0.30182 -0.30456,-0.30538 -0.55547,-0.0942 l -0.26078,0.21952 0.24152,-0.28508 0.24152,-0.28508 0.35484,0.33996 c 0.19517,0.18698 0.35484,0.35764 0.35484,0.37924 0,0.0928 -0.0999,0.02 -0.37647,-0.2744 z m -63.669765,-0.0316 c -0.156167,-0.19913 -0.151726,-0.20357 0.0474,-0.0474 0.120841,0.0948 0.219711,0.19365 0.219711,0.21972 0,0.10333 -0.103099,0.0368 -0.267114,-0.17231 z m 28.499729,-0.12555 c -0.156167,-0.19913 -0.151726,-0.20357 0.0474,-0.0474 0.120841,0.0948 0.219711,0.19364 0.219711,0.21971 0,0.10333 -0.1031,0.0368 -0.267114,-0.17231 z m 32.140656,0 c -0.15616,-0.19913 -0.15172,-0.20357 0.0474,-0.0474 0.12084,0.0948 0.21971,0.19364 0.21971,0.21971 0,0.10333 -0.1031,0.0368 -0.26712,-0.17231 z m -23.411835,-1.66353 c 0,-1.00126 0.0195,-1.41086 0.04333,-0.91024 0.02383,0.50063 0.02383,1.31984 0,1.82047 -0.02383,0.50063 -0.04333,0.091 -0.04333,-0.91023 z m 18.330215,0 c 0,-1.00126 0.0195,-1.41086 0.0433,-0.91024 0.0238,0.50063 0.0238,1.31984 0,1.82047 -0.0238,0.50063 -0.0433,0.091 -0.0433,-0.91023 z m 26.09818,1.67069 c 0.12215,-0.0318 0.29164,-0.0297 0.37664,0.005 0.085,0.0344 -0.0149,0.0604 -0.2221,0.0579 -0.20715,-0.003 -0.2767,-0.0307 -0.15454,-0.0625 z m -87.631395,-0.60352 c 10e-4,-0.34526 0.02533,-0.4716 0.05418,-0.28076 0.02886,0.19084 0.02809,0.47333 -0.0017,0.62775 -0.0298,0.15441 -0.05341,-0.002 -0.05247,-0.34699 z m 26.135992,0.43107 c -0.04551,-0.0737 -0.05583,-0.16083 -0.02292,-0.19374 0.03291,-0.0329 0.09329,0.0273 0.134181,0.1339 0.08489,0.22123 0.01254,0.26015 -0.111262,0.0598 z m 12.782628,-0.3683 c 0,-0.31073 0.02448,-0.43785 0.05441,-0.28248 0.02993,0.15536 0.02993,0.4096 0,0.56497 -0.02993,0.15537 -0.05441,0.0282 -0.05441,-0.28249 z m 16.323145,-0.0628 c 0.001,-0.34526 0.0253,-0.4716 0.0542,-0.28076 0.0289,0.19084 0.0281,0.47333 -0.002,0.62775 -0.0298,0.15441 -0.0534,-0.002 -0.0525,-0.34699 z m 18.85412,0.43107 c -0.0455,-0.0737 -0.0558,-0.16083 -0.0229,-0.19374 0.0329,-0.0329 0.0933,0.0273 0.13418,0.1339 0.0849,0.22123 0.0125,0.26015 -0.11126,0.0598 z m 20.81951,-0.43107 c 0.001,-0.34526 0.0253,-0.4716 0.0542,-0.28076 0.0289,0.19084 0.0281,0.47333 -0.002,0.62775 -0.0298,0.15441 -0.0534,-0.002 -0.0525,-0.34699 z m -62.539718,0.0628 c 0,-0.17263 0.0285,-0.24325 0.06332,-0.15693 0.03483,0.0863 0.03483,0.22755 0,0.31387 -0.03483,0.0863 -0.06332,0.0157 -0.06332,-0.15694 z m 4.760968,0.0523 c 0.006,-0.14626 0.03577,-0.17601 0.07585,-0.0759 0.03627,0.0906 0.03181,0.19892 -0.0099,0.24064 -0.04172,0.0417 -0.07139,-0.0324 -0.06594,-0.16478 z m -33.260697,-0.17787 c 0,-0.17263 0.0285,-0.24325 0.06333,-0.15693 0.03483,0.0863 0.03483,0.22755 0,0.31387 -0.03483,0.0863 -0.06333,0.0157 -0.06333,-0.15694 z m 20.343666,-0.18832 c 0.0026,-0.20716 0.0307,-0.2767 0.06253,-0.15455 0.03183,0.12216 0.02974,0.29165 -0.0047,0.37665 -0.03439,0.085 -0.06044,-0.0149 -0.05788,-0.2221 z m 9.893932,0.15197 c 0,-0.16524 -0.17201,-0.21193 -0.910234,-0.24707 l -0.910233,-0.0433 0.914173,-0.025 c 0.724095,-0.0198 0.929632,0.0153 0.988519,0.16879 0.04089,0.10656 0.03912,0.22897 -0.0039,0.27203 -0.04306,0.043 -0.07828,-0.0134 -0.07828,-0.12547 z m 32.142579,0.005 c -0.002,-0.20014 0.17639,-0.21971 2.00031,-0.21971 h 2.00223 l 0.0489,-0.62846 0.0489,-0.62845 -0.0109,0.65984 -0.0109,0.65985 -1.94072,0.0348 c -1.35974,0.0244 -1.96991,0.0808 -2.03825,0.18832 -0.0678,0.10673 -0.0981,0.0866 -0.0995,-0.0662 z m 5.92338,-0.15693 c 0.003,-0.20716 0.0307,-0.27671 0.0625,-0.15455 0.0318,0.12215 0.0297,0.29165 -0.005,0.37665 -0.0344,0.085 -0.0604,-0.0149 -0.0579,-0.2221 z m -7.64281,-0.56497 c 0,-0.44884 0.0228,-0.63246 0.0506,-0.40804 0.0279,0.22442 0.0279,0.59165 0,0.81607 -0.0278,0.22442 -0.0506,0.0408 -0.0506,-0.40803 z m 18.37374,0.54404 c -0.046,-0.046 -0.0837,-0.14208 -0.0837,-0.21343 0,-0.0787 0.0585,-0.0713 0.14857,0.0188 0.0817,0.0817 0.11937,0.17776 0.0837,0.21344 -0.0357,0.0357 -0.10254,0.0272 -0.14857,-0.0188 z m -58.695474,-1.29734 c 0,-0.17263 0.0285,-0.24325 0.06333,-0.15694 0.03483,0.0863 0.03483,0.22756 0,0.31388 -0.03483,0.0863 -0.06333,0.0157 -0.06333,-0.15694 z m 47.959894,0 c 0,-0.17263 0.0285,-0.24325 0.0633,-0.15694 0.0348,0.0863 0.0348,0.22756 0,0.31388 -0.0348,0.0863 -0.0633,0.0157 -0.0633,-0.15694 z m -73.866447,0.0398 c 0.09063,-0.0363 0.198916,-0.0318 0.240636,0.01 0.04172,0.0417 -0.03243,0.0714 -0.164783,0.0659 -0.146259,-0.006 -0.176008,-0.0358 -0.07585,-0.0759 z m 5.56754,-0.16533 c 0,-0.17263 0.0285,-0.24325 0.06333,-0.15694 0.03483,0.0863 0.03483,0.22756 0,0.31388 -0.03483,0.0863 -0.06333,0.0157 -0.06333,-0.15694 z m 22.086795,0.0523 c 0.006,-0.14626 0.03577,-0.176 0.07585,-0.0759 0.03627,0.0906 0.03181,0.19892 -0.0099,0.24064 -0.04172,0.0417 -0.07139,-0.0324 -0.06594,-0.16479 z m 27.587422,0.11302 c 0.0906,-0.0363 0.19892,-0.0318 0.24064,0.01 0.0417,0.0417 -0.0324,0.0714 -0.16478,0.0659 -0.14626,-0.006 -0.17601,-0.0358 -0.0759,-0.0759 z m 20.37247,-0.11302 c 0.006,-0.14626 0.0358,-0.176 0.0759,-0.0759 0.0363,0.0906 0.0318,0.19892 -0.01,0.24064 -0.0417,0.0417 -0.0714,-0.0324 -0.0659,-0.16479 z m 19.30117,0.11302 c 0.0906,-0.0363 0.19892,-0.0318 0.24064,0.01 0.0417,0.0417 -0.0324,0.0714 -0.16479,0.0659 -0.14626,-0.006 -0.17601,-0.0358 -0.0759,-0.0759 z m -93.230586,-0.41643 c 0,-0.24168 0.02584,-0.34055 0.05742,-0.21971 0.03158,0.12084 0.03158,0.31858 0,0.43942 -0.03158,0.12084 -0.05742,0.022 -0.05742,-0.21971 z m 55.241756,0 c 0,-0.24168 0.0258,-0.34055 0.0574,-0.21971 0.0316,0.12084 0.0316,0.31858 0,0.43942 -0.0316,0.12084 -0.0574,0.022 -0.0574,-0.21971 z m 39.67364,0 c 0,-0.24168 0.0258,-0.34055 0.0574,-0.21971 0.0316,0.12084 0.0316,0.31858 0,0.43942 -0.0316,0.12084 -0.0574,0.022 -0.0574,-0.21971 z m -73.074441,-0.31387 c 0.0026,-0.20716 0.0307,-0.27671 0.06253,-0.15455 0.03183,0.12216 0.02974,0.29165 -0.0047,0.37665 -0.03439,0.085 -0.06044,-0.0149 -0.05788,-0.2221 z m -25.375556,-0.13601 c 0.006,-0.14626 0.03577,-0.17601 0.07585,-0.0759 0.03627,0.0906 0.03181,0.19892 -0.0099,0.24064 -0.04172,0.0417 -0.07139,-0.0324 -0.06594,-0.16478 z m 36.760067,-0.0209 c -0.156168,-0.19913 -0.151727,-0.20357 0.0474,-0.0474 0.120842,0.0948 0.219712,0.19364 0.219712,0.21971 0,0.10333 -0.1031,0.0368 -0.267114,-0.17231 z m 18.48169,0.0209 c 0.006,-0.14626 0.0358,-0.17601 0.0759,-0.0759 0.0363,0.0906 0.0318,0.19892 -0.01,0.24064 -0.0417,0.0417 -0.0714,-0.0324 -0.0659,-0.16478 z m 39.67364,0 c 0.006,-0.14626 0.0358,-0.17601 0.0759,-0.0759 0.0363,0.0906 0.0318,0.19892 -0.01,0.24064 -0.0417,0.0417 -0.0714,-0.0324 -0.0659,-0.16478 z m -85.509099,0.0258 c 0,-0.0261 0.09887,-0.12494 0.219712,-0.21971 0.199129,-0.15617 0.203569,-0.15173 0.0474,0.0474 -0.164014,0.20914 -0.267114,0.27564 -0.267114,0.17231 z m 12.303848,0 c 0,-0.0261 0.09887,-0.12494 0.219711,-0.21971 0.199129,-0.15617 0.20357,-0.15173 0.0474,0.0474 -0.164014,0.20914 -0.267114,0.27564 -0.267114,0.17231 z m 50.078221,-0.17231 c -0.15617,-0.19913 -0.15173,-0.20357 0.0474,-0.0474 0.12084,0.0948 0.21971,0.19364 0.21971,0.21971 0,0.10333 -0.1031,0.0368 -0.26711,-0.17231 z m -74.401704,0.004 c 0.190843,-0.0289 0.473329,-0.0281 0.627747,0.002 0.154419,0.0298 -0.0017,0.0534 -0.346987,0.0525 -0.345261,-0.001 -0.471603,-0.0253 -0.28076,-0.0542 z m 55.367314,0 c 0.19084,-0.0289 0.47333,-0.0281 0.62775,0.002 0.15442,0.0298 -0.002,0.0534 -0.34699,0.0525 -0.34526,-0.001 -0.4716,-0.0253 -0.28076,-0.0542 z m 17.76143,-0.17659 c 0.0852,-0.0858 0.18647,-0.12438 0.22512,-0.0857 0.0387,0.0387 -0.031,0.10886 -0.15484,0.15601 -0.17893,0.0681 -0.19335,0.0537 -0.0703,-0.0703 z M 95.290046,144.8875 c 0,-0.37979 0.02354,-0.53516 0.0523,-0.34526 0.02877,0.18989 0.02877,0.50063 0,0.69052 -0.02877,0.18989 -0.0523,0.0345 -0.0523,-0.34526 z m 18.330214,0 c 0,-0.37979 0.0235,-0.53516 0.0523,-0.34526 0.0288,0.18989 0.0288,0.50063 0,0.69052 -0.0288,0.18989 -0.0523,0.0345 -0.0523,-0.34526 z m -57.799872,-0.0942 -0.30437,-0.34527 0.345261,0.30438 c 0.322698,0.28448 0.402836,0.38615 0.304371,0.38615 -0.02249,0 -0.177856,-0.15537 -0.345262,-0.34526 z m 33.515196,0.12554 c -0.156167,-0.19912 -0.151727,-0.20356 0.0474,-0.0474 0.120842,0.0948 0.219712,0.19364 0.219712,0.21971 0,0.10334 -0.1031,0.0368 -0.267114,-0.17231 z m 21.726566,-0.12554 -0.30437,-0.34527 0.34526,0.30438 c 0.18989,0.1674 0.34526,0.32277 0.34526,0.34526 0,0.0985 -0.10167,0.0183 -0.38615,-0.30437 z m 8.92351,0.29785 c 0,-0.0261 0.0989,-0.12494 0.21972,-0.21971 0.19913,-0.15616 0.20357,-0.15172 0.0474,0.0474 -0.16402,0.20914 -0.26712,0.27565 -0.26712,0.17231 z m 30.75012,-0.29785 -0.30437,-0.34527 0.34526,0.30438 c 0.1899,0.1674 0.34526,0.32277 0.34526,0.34526 0,0.0985 -0.10167,0.0183 -0.38615,-0.30437 z m -103.317703,0.024 c 0,-0.10765 0.05742,-0.16024 0.127597,-0.11687 0.07018,0.0434 0.09509,0.13145 0.05537,0.19573 -0.107625,0.17415 -0.182962,0.14167 -0.182962,-0.0789 z m 25.549317,-0.0554 c 0.124983,-0.13811 0.25549,-0.2511 0.290016,-0.2511 0.03453,0 -0.03948,0.11299 -0.164467,0.2511 -0.124983,0.1381 -0.255491,0.2511 -0.290017,0.2511 -0.03453,0 0.03948,-0.113 0.164468,-0.2511 z m 29.817996,0.0554 c 0,-0.10765 0.0574,-0.16024 0.1276,-0.11687 0.0702,0.0434 0.0951,0.13145 0.0554,0.19573 -0.10763,0.17415 -0.18296,0.14167 -0.18296,-0.0789 z m 21.32739,-0.024 c -0.15617,-0.19913 -0.15172,-0.20357 0.0474,-0.0474 0.12085,0.0948 0.21972,0.19364 0.21972,0.21971 0,0.10334 -0.1031,0.0368 -0.26712,-0.1723 z m -48.144128,-0.18833 -0.23917,-0.28248 0.282486,0.23917 c 0.265467,0.22476 0.339642,0.3258 0.239171,0.3258 -0.02383,0 -0.150944,-0.12712 -0.282487,-0.28249 z m 6.905221,0 -0.239171,-0.28248 0.282487,0.23917 c 0.155367,0.13154 0.282486,0.25866 0.282486,0.28248 0,0.10047 -0.101041,0.0263 -0.325802,-0.23917 z m 4.503129,-0.21971 c 0,-0.31074 0.02448,-0.43785 0.05441,-0.28249 0.02993,0.15537 0.02993,0.40961 0,0.56498 -0.02992,0.15536 -0.05441,0.0282 -0.05441,-0.28249 z m 43.456768,0.21971 -0.23918,-0.28248 0.28249,0.23917 c 0.26547,0.22476 0.33964,0.3258 0.23917,0.3258 -0.0238,0 -0.15094,-0.12712 -0.28248,-0.28249 z m -50.898381,0.10954 c 0,-0.0261 0.09887,-0.12494 0.219711,-0.21972 0.199129,-0.15616 0.20357,-0.15172 0.0474,0.0474 -0.164014,0.20913 -0.267114,0.27564 -0.267114,0.17231 z m 47.959891,0 c 0,-0.0261 0.0989,-0.12494 0.21971,-0.21972 0.19913,-0.15616 0.20357,-0.15172 0.0474,0.0474 -0.16402,0.20913 -0.26712,0.27564 -0.26712,0.17231 z m -38.774957,-0.32925 c 0,-0.17263 0.0285,-0.24325 0.06333,-0.15694 0.03483,0.0863 0.03483,0.22756 0,0.31388 -0.03483,0.0863 -0.06333,0.0157 -0.06333,-0.15694 z m 4.519781,0 c 0,-0.17263 0.0285,-0.24325 0.06333,-0.15694 0.03483,0.0863 0.03483,0.22756 0,0.31388 -0.03483,0.0863 -0.06333,0.0157 -0.06333,-0.15694 z m -40.470292,-0.21131 c 0.09063,-0.0363 0.198917,-0.0318 0.240637,0.01 0.04172,0.0417 -0.03243,0.0714 -0.164784,0.0659 -0.146259,-0.006 -0.176008,-0.0358 -0.07585,-0.0759 z m 1.381044,0 c 0.09063,-0.0363 0.198918,-0.0318 0.240637,0.01 0.04172,0.0417 -0.03243,0.0714 -0.164784,0.0659 -0.146258,-0.006 -0.176007,-0.0358 -0.07585,-0.0759 z m 20.590113,0 c 0.09063,-0.0363 0.198918,-0.0318 0.240637,0.01 0.04172,0.0417 -0.03243,0.0714 -0.164784,0.0659 -0.146259,-0.006 -0.176008,-0.0358 -0.07585,-0.0759 z m 22.788178,-0.66754 c 0,-0.44884 0.02279,-0.63245 0.05064,-0.40803 0.02785,0.22442 0.02785,0.59165 0,0.81607 -0.02785,0.22442 -0.05064,0.0408 -0.05064,-0.40804 z m 10.482423,0.66754 c 0.0906,-0.0363 0.19892,-0.0318 0.24064,0.01 0.0417,0.0417 -0.0324,0.0714 -0.16478,0.0659 -0.14626,-0.006 -0.17601,-0.0358 -0.0759,-0.0759 z m 1.38105,0 c 0.0906,-0.0363 0.19892,-0.0318 0.24063,0.01 0.0417,0.0417 -0.0324,0.0714 -0.16478,0.0659 -0.14626,-0.006 -0.17601,-0.0358 -0.0759,-0.0759 z m 6.46675,-0.66754 c 0,-0.44884 0.0228,-0.63245 0.0506,-0.40803 0.0279,0.22442 0.0279,0.59165 0,0.81607 -0.0279,0.22442 -0.0506,0.0408 -0.0506,-0.40804 z m 6.59039,0.66754 c 0.0906,-0.0363 0.19892,-0.0318 0.24064,0.01 0.0417,0.0417 -0.0324,0.0714 -0.16478,0.0659 -0.14626,-0.006 -0.17601,-0.0358 -0.0759,-0.0759 z m 25.23544,0 c 0.0906,-0.0363 0.19893,-0.0318 0.24065,0.01 0.0417,0.0417 -0.0325,0.0714 -0.16479,0.0659 -0.14626,-0.006 -0.17601,-0.0358 -0.0759,-0.0759 z m 1.38105,0 c 0.0906,-0.0363 0.19892,-0.0318 0.24064,0.01 0.0417,0.0417 -0.0324,0.0714 -0.16478,0.0659 -0.14627,-0.006 -0.17601,-0.0358 -0.0759,-0.0759 z m -59.267192,-0.75614 c 0.155367,-0.0299 0.409605,-0.0299 0.564972,0 0.155368,0.0299 0.02825,0.0544 -0.282486,0.0544 -0.310735,0 -0.437854,-0.0245 -0.282486,-0.0544 z m -21.81422,-0.0844 c 0,-0.0261 0.09887,-0.12494 0.219712,-0.21971 0.199129,-0.15617 0.203569,-0.15173 0.0474,0.0474 -0.164014,0.20914 -0.267114,0.27564 -0.267114,0.17231 z m 87.005772,0 c 0,-0.0261 0.0989,-0.12494 0.21972,-0.21971 0.19913,-0.15617 0.20356,-0.15173 0.0474,0.0474 -0.16401,0.20914 -0.26712,0.27564 -0.26712,0.17231 z m -62.47278,-0.48618 -0.23917,-0.28249 0.282486,0.23917 c 0.265467,0.22476 0.339642,0.32581 0.239171,0.32581 -0.02383,0 -0.150944,-0.12712 -0.282487,-0.28249 z m -3.213123,-0.80767 c 0.09063,-0.0363 0.198918,-0.0318 0.240637,0.01 0.04172,0.0417 -0.03243,0.0714 -0.164784,0.0659 -0.146259,-0.006 -0.176008,-0.0358 -0.07585,-0.0759 z m 1.506593,0 c 0.09063,-0.0363 0.198918,-0.0318 0.240637,0.01 0.04172,0.0417 -0.03243,0.0714 -0.164783,0.0659 -0.146259,-0.006 -0.176008,-0.0358 -0.07585,-0.0759 z m -22.952011,-0.16534 c -0.113157,-0.0731 -0.128642,-0.12247 -0.0388,-0.12363 0.08224,-10e-4 0.184445,0.0546 0.227122,0.12363 0.09633,0.15587 0.05287,0.15587 -0.188324,0 z m 87.005771,0 c -0.11315,-0.0731 -0.12863,-0.12247 -0.0388,-0.12363 0.0822,-10e-4 0.18444,0.0546 0.22712,0.12363 0.0963,0.15587 0.0529,0.15587 -0.18833,0 z"
       id="path171" />
  </g>
</svg>
